<svg style="position: absolute; width: 0; height: 0; overflow: hidden;" version="1.1" xmlns="http://www.w3.org/2000/svg" xmlns:xlink="http://www.w3.org/1999/xlink">
<defs>

<symbol id="icon-envelope-o" viewBox="0 0 32 32">
<path class="path1" d="M29.714 26.857v-13.714q-0.571 0.643-1.232 1.179-4.786 3.679-7.607 6.036-0.911 0.768-1.482 1.196t-1.545 0.866-1.83 0.438h-0.036q-0.857 0-1.83-0.438t-1.545-0.866-1.482-1.196q-2.821-2.357-7.607-6.036-0.661-0.536-1.232-1.179v13.714q0 0.232 0.17 0.402t0.402 0.17h26.286q0.232 0 0.402-0.17t0.17-0.402zM29.714 8.089v-0.438t-0.009-0.232-0.054-0.223-0.098-0.161-0.161-0.134-0.25-0.045h-26.286q-0.232 0-0.402 0.17t-0.17 0.402q0 3 2.625 5.071 3.446 2.714 7.161 5.661 0.107 0.089 0.625 0.527t0.821 0.67 0.795 0.563 0.902 0.491 0.768 0.161h0.036q0.357 0 0.768-0.161t0.902-0.491 0.795-0.563 0.821-0.67 0.625-0.527q3.714-2.946 7.161-5.661 0.964-0.768 1.795-2.063t0.83-2.348zM32 7.429v19.429q0 1.179-0.839 2.018t-2.018 0.839h-26.286q-1.179 0-2.018-0.839t-0.839-2.018v-19.429q0-1.179 0.839-2.018t2.018-0.839h26.286q1.179 0 2.018 0.839t0.839 2.018z"></path>
</symbol>

<symbol id="icon-close" viewBox="0 0 25 32">
<path class="path1" d="M23.179 23.607q0 0.714-0.5 1.214l-2.429 2.429q-0.5 0.5-1.214 0.5t-1.214-0.5l-5.25-5.25-5.25 5.25q-0.5 0.5-1.214 0.5t-1.214-0.5l-2.429-2.429q-0.5-0.5-0.5-1.214t0.5-1.214l5.25-5.25-5.25-5.25q-0.5-0.5-0.5-1.214t0.5-1.214l2.429-2.429q0.5-0.5 1.214-0.5t1.214 0.5l5.25 5.25 5.25-5.25q0.5-0.5 1.214-0.5t1.214 0.5l2.429 2.429q0.5 0.5 0.5 1.214t-0.5 1.214l-5.25 5.25 5.25 5.25q0.5 0.5 0.5 1.214z"></path>
</symbol>

<symbol id="icon-github" viewBox="0 0 27 32">
<path class="path1" d="M13.714 2.286q3.732 0 6.884 1.839t4.991 4.991 1.839 6.884q0 4.482-2.616 8.063t-6.759 4.955q-0.482 0.089-0.714-0.125t-0.232-0.536q0-0.054 0.009-1.366t0.009-2.402q0-1.732-0.929-2.536 1.018-0.107 1.83-0.321t1.679-0.696 1.446-1.188 0.946-1.875 0.366-2.688q0-2.125-1.411-3.679 0.661-1.625-0.143-3.643-0.5-0.161-1.446 0.196t-1.643 0.786l-0.679 0.429q-1.661-0.464-3.429-0.464t-3.429 0.464q-0.286-0.196-0.759-0.482t-1.491-0.688-1.518-0.241q-0.804 2.018-0.143 3.643-1.411 1.554-1.411 3.679 0 1.518 0.366 2.679t0.938 1.875 1.438 1.196 1.679 0.696 1.83 0.321q-0.696 0.643-0.875 1.839-0.375 0.179-0.804 0.268t-1.018 0.089-1.17-0.384-0.991-1.116q-0.339-0.571-0.866-0.929t-0.884-0.429l-0.357-0.054q-0.375 0-0.518 0.080t-0.089 0.205 0.161 0.25 0.232 0.214l0.125 0.089q0.393 0.179 0.777 0.679t0.563 0.911l0.179 0.411q0.232 0.679 0.786 1.098t1.196 0.536 1.241 0.125 0.991-0.063l0.411-0.071q0 0.679 0.009 1.58t0.009 0.973q0 0.321-0.232 0.536t-0.714 0.125q-4.143-1.375-6.759-4.955t-2.616-8.063q0-3.732 1.839-6.884t4.991-4.991 6.884-1.839zM5.196 21.982q0.054-0.125-0.125-0.214-0.179-0.054-0.232 0.036-0.054 0.125 0.125 0.214 0.161 0.107 0.232-0.036zM5.75 22.589q0.125-0.089-0.036-0.286-0.179-0.161-0.286-0.054-0.125 0.089 0.036 0.286 0.179 0.179 0.286 0.054zM6.286 23.393q0.161-0.125 0-0.339-0.143-0.232-0.304-0.107-0.161 0.089 0 0.321t0.304 0.125zM7.036 24.143q0.143-0.143-0.071-0.339-0.214-0.214-0.357-0.054-0.161 0.143 0.071 0.339 0.214 0.214 0.357 0.054zM8.054 24.589q0.054-0.196-0.232-0.286-0.268-0.071-0.339 0.125t0.232 0.268q0.268 0.107 0.339-0.107zM9.179 24.679q0-0.232-0.304-0.196-0.286 0-0.286 0.196 0 0.232 0.304 0.196 0.286 0 0.286-0.196zM10.214 24.5q-0.036-0.196-0.321-0.161-0.286 0.054-0.25 0.268t0.321 0.143 0.25-0.25z"></path>
</symbol>

<symbol id="icon-wordpress" viewBox="0 0 32 32">
<path class="path1" d="M2.268 16q0-2.911 1.196-5.589l6.554 17.946q-3.5-1.696-5.625-5.018t-2.125-7.339zM25.268 15.304q0 0.339-0.045 0.688t-0.179 0.884-0.205 0.786-0.313 1.054-0.313 1.036l-1.357 4.571-4.964-14.75q0.821-0.054 1.571-0.143 0.339-0.036 0.464-0.33t-0.045-0.554-0.509-0.241l-3.661 0.179q-1.339-0.018-3.607-0.179-0.214-0.018-0.366 0.089t-0.205 0.268-0.027 0.33 0.161 0.295 0.348 0.143l1.429 0.143 2.143 5.857-3 9-5-14.857q0.821-0.054 1.571-0.143 0.339-0.036 0.464-0.33t-0.045-0.554-0.509-0.241l-3.661 0.179q-0.125 0-0.411-0.009t-0.464-0.009q1.875-2.857 4.902-4.527t6.563-1.67q2.625 0 5.009 0.946t4.259 2.661h-0.179q-0.982 0-1.643 0.723t-0.661 1.705q0 0.214 0.036 0.429t0.071 0.384 0.143 0.411 0.161 0.375 0.214 0.402 0.223 0.375 0.259 0.429 0.25 0.411q1.125 1.911 1.125 3.786zM16.232 17.196l4.232 11.554q0.018 0.107 0.089 0.196-2.25 0.786-4.554 0.786-2 0-3.875-0.571zM28.036 9.411q1.696 3.107 1.696 6.589 0 3.732-1.857 6.884t-4.982 4.973l4.196-12.107q1.054-3.018 1.054-4.929 0-0.75-0.107-1.411zM16 0q3.25 0 6.214 1.268t5.107 3.411 3.411 5.107 1.268 6.214-1.268 6.214-3.411 5.107-5.107 3.411-6.214 1.268-6.214-1.268-5.107-3.411-3.411-5.107-1.268-6.214 1.268-6.214 3.411-5.107 5.107-3.411 6.214-1.268zM16 31.268q3.089 0 5.92-1.214t4.875-3.259 3.259-4.875 1.214-5.92-1.214-5.92-3.259-4.875-4.875-3.259-5.92-1.214-5.92 1.214-4.875 3.259-3.259 4.875-1.214 5.92 1.214 5.92 3.259 4.875 4.875 3.259 5.92 1.214z"></path>
</symbol>

<symbol id="icon-happy" viewBox="0 0 512 512">
  <style type="text/css"> .stt0{fill:#FFCE07;} .stt1{fill:#272014;} .stt2{fill:#483D24;} .stt3{fill:#562A15;} </style><g><circle class="stt0" cx="256" cy="256" r="128"/><g><g><g><path class="stt1" d="M278.4,203.1c-8.2,2.7-18.3,3.2-22.3,3.2c-4-0.1-14.2-0.5-22.4-3.2c-15.6-5.2-40.6-8.5-59.7-8      c-14.1,0.3-28.8,2.2-37.9,4.1c-4,0.8-6.6,4.8-5.7,8.8l1,4.2c0.6,2.4,2.5,4.2,4.8,5.1c1.2,0.4,2.4,1.2,2.9,2.7      c1.6,4.4,10.5,30.5,15.3,40.2c3.9,7.9,14.6,14.7,39.3,14.8c35.2,0.1,47.4-23.1,53-38.2c0.6-1.6,1.5-4.6,2.3-7.5      c1.1-4.2,3.7-8.3,4.8-8.9c0.7-0.3,1.5-0.6,2.2-0.6c0.8,0,1.6,0.3,2.2,0.6c1.1,0.6,3.6,4.7,4.8,8.9c0.8,2.9,1.7,5.9,2.3,7.5      c5.6,15,17.8,38.3,53,38.2c24.7-0.1,35.4-6.9,39.3-14.8c4.8-9.7,13.6-35.8,15.3-40.2c0.5-1.4,1.7-2.2,2.9-2.7      c2.4-0.8,4.2-2.6,4.8-5.1l1-4.2c0.9-4-1.6-8-5.7-8.8c-9.1-1.8-23.8-3.7-37.9-4.1C318.9,194.6,293.9,197.9,278.4,203.1z"/></g><g><path class="st2" d="M272.5,226.4c0.7,17.1,17.4,33.5,32.9,37.2c22.9,5.5,40,0.6,49.8-20.4c2.9-6.3,9.2-20.1,8.8-27.5      c-0.7-12.8-16.9-10.5-27.3-10.8C335.6,204.9,271.5,203.1,272.5,226.4z"/></g><g><path class="stt2" d="M240.1,226.4c-0.7,17.1-17.4,33.5-32.9,37.2c-22.9,5.5-40,0.6-49.8-20.4c-2.9-6.3-9.2-20.1-8.8-27.5      c0.7-12.8,16.9-10.5,27.3-10.8C177,204.9,241.1,203.1,240.1,226.4z"/></g></g></g><g><path class="stt3" d="M283.3,321.5c-3.4,0-6.9-0.3-10.4-0.8c-3.4-0.5-5.8-3.7-5.3-7.1c0.5-3.4,3.7-5.8,7.1-5.3    c19.8,3,37.4-4.5,44.8-19.1c1.6-3.1,5.3-4.3,8.4-2.7c3.1,1.6,4.3,5.3,2.7,8.4C322.2,311.7,304.2,321.5,283.3,321.5z"/></g></g>
</symbol>

<symbol id="icon-question" viewBox="0 0 128 128">
  <defs><style>.cls-1{fill:#ff7d00;}.cls-2{fill:#fff;}</style></defs><title/><circle class="cls-1" cx="64" cy="64" r="60"/><path class="cls-2" d="M59.11,76.19Q59,75.51,59,74.88c0-.42,0-.86,0-1.32a16,16,0,0,1,1.19-6.46,17,17,0,0,1,3-4.72,24,24,0,0,1,4-3.48q2.12-1.49,4-3a18,18,0,0,0,3-3.06,6.08,6.08,0,0,0,1.19-3.78,5.59,5.59,0,0,0-2.46-4.76q-2.47-1.78-7.65-1.78a14.72,14.72,0,0,0-4.84.76,24.34,24.34,0,0,0-4.08,1.83,25.88,25.88,0,0,0-3.31,2.21q-1.45,1.15-2.55,1.91L45,42.12a24.75,24.75,0,0,1,4.63-3.91,28.61,28.61,0,0,1,5.48-2.8,33.24,33.24,0,0,1,5.95-1.66,34,34,0,0,1,6-.55q9.26,0,14.4,3.87a12.36,12.36,0,0,1,5.14,10.41,17.12,17.12,0,0,1-1.32,7.18A16.23,16.23,0,0,1,82,59.5,28.73,28.73,0,0,1,77.59,63a39.35,39.35,0,0,0-4.33,3.27,16.41,16.41,0,0,0-3.36,4,11.36,11.36,0,0,0-1.36,5.86Zm-1.7,12.07a6.13,6.13,0,0,1,1.87-4.72,6.94,6.94,0,0,1,4.93-1.74,7.19,7.19,0,0,1,5.1,1.74,6.14,6.14,0,0,1,1.87,4.72A6.27,6.27,0,0,1,69.31,93a7.08,7.08,0,0,1-5.1,1.78A6.84,6.84,0,0,1,59.28,93,6.27,6.27,0,0,1,57.42,88.26Z"/>
</symbol>

<symbol id="icon-ds_facebook" viewBox="0 0 30 30">
  <g><path d="M22,16l1-5l-5,0.001V7c0-1.544,0.784-2,3-2h2V0c0,0-2.05,0-4,0c-4.072,0-7,2.435-7,7v4l-5,0v5h5v14h6V16H22z" id="f"/></g>
</symbol>

<symbol id="icon-ds_twitter" viewBox="0 0 30 30">
  <g><path d="M30,6.708C28.895,7.199,27.244,7.851,26,8c1.273-0.762,2.539-2.561,3-4c-0.971,0.577-2.087,1.355-3.227,1.773    L25,5c-1.121-1.197-2.23-2-4-2c-3.398,0-6,2.602-6,6c0,0.399,0.047,0.7,0.11,0.956L15,10C9,10,5.034,8.724,2,5    C1.469,5.908,1,6.872,1,8c0,2.136,1.348,3.894,3,5c-1.009-0.033-2.171-0.542-3-1c0,2.98,4.186,6.432,7,7c-1,1-4.623,0.074-5,0    c0.784,2.447,3.309,3.949,6,4c-2.105,1.648-4.647,2.51-7.531,2.51c-0.498,0-0.987-0.029-1.469-0.084C2.723,27.17,6.523,28,10,28    c11.322,0,17-8.867,17-17c0-0.268,0.008-0.736,0-1C28.201,9.132,29.172,7.942,30,6.708z" id="Brid"/></g>
</symbol>

<symbol id="icon-ds_googleplus" viewBox="0 0 30 30">
  <polygon id="_x2B_" points="30,13 26,13 26,9 24,9 24,13 20,13 20,15 24,15 24,19 26,19 26,15 30,15 "/><path d="M15,17c0,0-2-1.15-2-2c0,0-0.499-1.828,1-3c1.537-1.2,3-3.035,3-5c0-2.336-1.046-5-3-6h3l2.387-1  c0,0-7.063,0-9.387,0C5.835,0,2,3.345,2,7c0,3.735,2.849,6.56,7.086,6.56c0.295,0,0.581-0.006,0.861-0.025  c-0.274,0.526-0.472,1.119-0.472,1.735c0,1.037,0.818,2.042,1.524,2.73c-0.533,0-1.438,0-2,0c-5.159,0-9,2.593-9,6  c0,3.355,4.872,6,10.031,6c5.882,0,9.97-3,9.97-7C20,20.311,17.455,18.736,15,17z M11,13c-2.395,0-5.587-2.857-6-6  C4.587,3.856,6.607,0.929,9,1c2.394,0.071,4.603,2.908,5.017,6.052C14.429,10.195,13,13,11,13z M10,28c-3.566,0-7-1.289-7-4  c0-2.658,3.434-5.038,7-5c0.832,0.009,2,0,2,0c1,0,2.88,0.881,4,2c1,1,1,2.674,1,3C17,27,15.014,28,10,28z" id="g"/>
</symbol>

<symbol id="icon-ds_linkedin" viewBox="0 0 30 30">
  <g><path d="M11,10h6v3l0,0c0.83-1.572,2.977-3,6-3c6.291,0,7,3.616,7,9v11h-6V20c0-2.318,0.188-5-3-5c-4,0-4,2.393-4,5v10h-6    V10z" id="n"/><rect height="20" id="_x7C_" width="6" x="1" y="10"/><circle cx="4" cy="3.5" id="_x28____x29_" r="3.5"/></g>
</symbol>

<symbol id="icon-ds_pinterest" viewBox="0 0 30 30">
  <path d="M16,0C7.813,0,3,6.105,3,11c0,2.964,2,6,3,6s2,0,2-1s-2-2-2-5c0-4.354,4.773-8,10-8c4.627,0,7,3.224,7,7  c0,4.968-2.735,9-6,9c-1.803,0-3.433-1.172-3-3c0.519-2.184,1-2,2-6c0.342-1.368-0.433-3-2-3c-1.843,0-4,1.446-4,4c0,1.627,1,3,1,3  s-2.245,7.863-2.576,9.263C7.766,26.049,6.938,30,7.938,30S10,28,12,23c0.295-0.738,1-3,1-3c0.599,1.142,3.14,2,5,2  c5.539,0,9-5.24,9-12C27,4.888,22.58,0,16,0z" id="P"/>
</symbol>

<symbol id="icon-ds_whatsapp" viewBox="0 0 512 512">
  <g><path d="M10.8,507.9c6.9-20.7,13.4-40.1,19.9-59.5c6.5-19.2,12.3-38.7,19.7-57.6c3.8-9.6,2.6-16.8-2.2-25.8   c-26.2-48.6-34-100.7-24.9-154.9c7.7-45.9,27.2-86.5,58.7-121C133.9,32.4,198.7,5.2,275.3,8.4c56.1,2.3,105.7,22.8,148,59.9   c39.4,34.5,65.1,77.4,77,128.4c9.6,41.1,8.5,82-3.3,122.5c-15,51.3-43.7,93.6-86.4,125.8c-59.3,44.8-125.8,58.7-198.3,44.6   c-21.8-4.2-42.6-12-62.2-22.6c-3.2-1.7-5.9-2.1-9.4-0.9c-37.2,12-74.5,23.9-111.7,35.8C23.4,503.7,17.7,505.6,10.8,507.9z    M74.1,445.2c2-0.5,2.9-0.7,3.8-1c23.3-7.4,46.6-14.9,70-22.1c2.2-0.7,5.2-0.1,7.3,0.9c10.1,5,19.8,11,30.2,15.4   c42.8,18.1,86.9,21,131.5,8.6c53.2-14.9,94-46.6,121.9-94.5c23.9-41,32.1-85.3,24.7-131.9c-9.4-59.3-39.8-105.9-90.1-139   C329.8,53,281.8,43.3,230.6,51.4c-44.1,7-81.8,27.1-112.9,59.3c-26.7,27.6-44.6,60.2-52.4,97.7c-11.1,53.7-2.9,104.5,26.9,150.8   c6,9.3,5.8,16.4,2.2,25.9C87.1,404.6,81,424.5,74.1,445.2z"/><path d="M389.3,321.8c-0.3,19.3-9.4,34-27.8,43.2c-18.1,9-36.5,11.3-55.4,3.9c-17-6.7-34.2-13.2-50.6-21.3   c-21.6-10.7-39.3-26.7-55.5-44.4c-17.9-19.6-33.1-41.4-45.6-64.7c-8.9-16.5-14.3-34-12.4-53.2c2-20.4,11.5-36.7,27.5-49   c3.2-2.4,8-3.5,12.1-3.9c5.3-0.4,10.6,0.4,15.9,0.8c4.4,0.4,6.8,3.5,8.3,7.1c3.9,9.6,7.4,19.2,11.1,28.9c2.5,6.5,4.4,13.3,7.4,19.6   c3.7,7.8,1.4,14.3-3.4,20.3c-4.1,5.1-8.4,10-13.1,14.4c-3.9,3.7-4.6,7.5-2,12c11.5,20.5,25.5,38.9,44,53.8   c12.2,9.8,25.7,17.1,39.7,23.9c4.1,2,8.1,1.7,11.3-2c6.9-7.9,13.9-15.7,20.7-23.7c4.4-5.1,6.6-6.1,12.5-3.1   c17.1,8.6,34,17.5,51,26.4C389,313,390,316.6,389.3,321.8z"/></g>
</symbol>

<symbol id="icon-ds_stumbleupon" viewBox="0 0 30 30">
  <g><g id="Dick"><path d="M26,15v4c0,2-0.819,3-2,3c-1.18,0-2-1-2-3v-4l-2,1l-2-1v4c0,4.016,2.455,7,6,7s6-3,6-6.715V15L26,15z" id="u"/><path d="M18,13l2,1l2-1v-2c0-5-3.455-7-7-7c-3.544,0-7,2-7,7v8c0,2-0.82,3-2,3c-1.181,0-2-1-2-3v-4l-4,0v4.285     C0,23,2.455,26,6,26s6-2.984,6-7v-8c0-2,1.819-3,3-3c1.178,0,3,1,3,3V13z" id="S"/></g></g>
</symbol>

<symbol id="icon-ds_reddit" viewBox="0 0 30 30">
  <path d="M30,13c0-1.657-1.344-3-3-3c-1.417,0-2.582,0.99-2.894,2.312c-2.373-1.348-5.393-2.208-8.587-2.293l2.09-6.444  l4.401,1.036C22.069,5.938,23.156,7,24.5,7C25.881,7,27,5.881,27,4.5S25.881,2,24.5,2c-1.069,0-1.976,0.675-2.332,1.619L17.39,2.495  c-0.25-0.057-0.509,0.085-0.59,0.333l-2.275,7.018c-0.019,0.057-0.021,0.115-0.02,0.172c-3.203,0.082-6.232,0.942-8.611,2.294  C5.581,10.99,4.417,10,3,10c-1.657,0-3,1.343-3,3c0,1.305,0.842,2.395,2.005,2.807C1.368,16.81,1,17.887,1,19c0,4.811,6.628,9,14,9  c7.371,0,14-4.189,14-9c0-1.113-0.368-2.19-1.006-3.193C29.157,15.395,30,14.305,30,13z M1,13c0-1.104,0.896-2,2-2  c1.06,0,1.918,0.827,1.987,1.87c-0.931,0.625-1.731,1.329-2.366,2.092C1.698,14.784,1,13.975,1,13z M15,27c-7.18,0-13-3.582-13-8  s5.82-8,13-8s13,3.582,13,8S22.18,27,15,27z M27.379,14.962c-0.635-0.763-1.435-1.467-2.366-2.092C25.081,11.827,25.94,11,27,11  c1.104,0,2,0.896,2,2C29,13.975,28.302,14.785,27.379,14.962z" id="Head"/><circle cx="10" cy="17" id="Eye1" r="2"/><circle cx="20" cy="17" id="Eye2" r="2"/><path d="M19.646,22.143c-0.913,0.913-2.428,1.357-4.63,1.357c-0.006,0-0.012,0.004-0.018,0.004S14.987,23.5,14.98,23.5  c-2.201,0-3.714-0.444-4.627-1.357c-0.195-0.195-0.512-0.195-0.707,0s-0.195,0.512,0,0.707c1.109,1.11,2.854,1.65,5.334,1.65  c0.006,0,0.012-0.004,0.018-0.004S15.01,24.5,15.017,24.5c2.48,0,4.227-0.54,5.337-1.65c0.195-0.195,0.195-0.512,0-0.707  S19.842,21.947,19.646,22.143z" id="_x29_"/>
</symbol>

<symbol id="icon-ds_tumblr" viewBox="0 0 30 30">
  <g><path d="M23,24c-1,1-2.203,1-3,1c-2,0-2.979-1.729-3-3V12h6V8h-6V0h-5c0,0,0.018,0.839,0,1c-0.257,2.339,0,5-6,7v4h5v10    c0,3.355,0.465,8.112,7,8c2.205-0.038,5.457-1.204,6-2L23,24z" id="t"/></g>
</symbol>

<symbol id="icon-ds_ok" viewBox="0 0 30 30">
  <path d="M22,15c-1,0-3,2-7,2s-6-2-7-2c-1.104,0-2,0.896-2,2c0,1,0.568,1.481,1,1.734C8.185,19.427,12,21,12,21l-4.25,5.438  c0,0-0.75,0.935-0.75,1.562c0,1.104,0.896,2,2,2c1.021,0,1.484-0.656,1.484-0.656S14.993,23.993,15,24  c0.007-0.007,4.516,5.344,4.516,5.344S19.979,30,21,30c1.104,0,2-0.896,2-2c0-0.627-0.75-1.562-0.75-1.562L18,21  c0,0,3.815-1.573,5-2.266C23.432,18.481,24,18,24,17C24,15.896,23.104,15,22,15z" id="K"/><path d="M15,0c-3.866,0-7,3.134-7,7s3.134,7,7,7c3.865,0,7-3.134,7-7S18.865,0,15,0z M15,10.5c-1.933,0-3.5-1.566-3.5-3.5  c0-1.933,1.567-3.5,3.5-3.5c1.932,0,3.5,1.567,3.5,3.5C18.5,8.934,16.932,10.5,15,10.5z" id="O"/>
</symbol>

<symbol id="icon-ds_vk" viewBox="0 0 30 30">
  <path clip-rule="evenodd" d="M16,24c1,0,1-1.441,1-2c0-1,1-2,2-2s2.715,1.715,4,3c1,1,1,1,2,1s3,0,3,0  s2-0.076,2-2c0-0.625-0.685-1.685-3-4c-2-2-3.026-0.967,0-5c1.843-2.456,3.184-4.681,2.954-5.323C29.734,7.064,24.608,6.088,24,7  c-2,3-2.367,3.735-3,5c-1,2-1.099,3-2,3c-0.909,0-1-1.941-1-3c0-3.306,0.479-5.644-1-6c0,0-2,0-3,0c-1.61,0-3,1-3,1  s-1.241,0.968-1,1c0.298,0.04,2-0.414,2,1c0,1,0,2,0,2s0.009,4-1,4c-1,0-3-4-5-7C5.215,6.823,5,7,4,7C2.928,7,2.001,7.042,1,7.042  C0,7.042-0.128,7.679,0,8c2,5,3.437,8.14,7.237,12.096C10.722,23.725,13.05,23.918,15,24C15.5,24.021,15,24,16,24z" fill-rule="evenodd" id="VK"/>
</symbol>

<symbol id="icon-ds_wp" viewBox="0 0 30 30">
  <g id="W"><path d="M2.132,15c0,5.093,2.96,9.495,7.253,11.58L3.246,9.763C2.532,11.363,2.132,13.134,2.132,15z"/><path d="M23.687,14.351c0-1.591-0.572-2.691-1.062-3.549c-0.651-1.061-1.264-1.957-1.264-3.018c0-1.183,0.896-2.284,2.161-2.284   c0.057,0,0.111,0.007,0.166,0.011C21.399,3.413,18.35,2.132,15,2.132c-4.496,0-8.45,2.307-10.751,5.8   c0.302,0.01,0.586,0.016,0.828,0.016c1.346,0,3.429-0.163,3.429-0.163c0.693-0.041,0.775,0.979,0.083,1.061   c0,0-0.697,0.081-1.473,0.122l4.686,13.938l2.815-8.445l-2.004-5.493c-0.693-0.041-1.35-0.122-1.35-0.122   c-0.693-0.041-0.612-1.102,0.081-1.061c0,0,2.125,0.163,3.389,0.163c1.346,0,3.43-0.163,3.43-0.163   c0.694-0.041,0.776,0.979,0.083,1.061c0,0-0.698,0.081-1.473,0.122l4.649,13.832l1.284-4.288   C23.263,16.729,23.687,15.452,23.687,14.351z"/><path d="M15.226,16.125l-3.861,11.219c1.153,0.339,2.372,0.524,3.636,0.524c1.498,0,2.936-0.259,4.272-0.729   c-0.034-0.055-0.066-0.113-0.092-0.178L15.226,16.125z"/><path d="M26.291,8.826c0.056,0.41,0.087,0.85,0.087,1.323c0,1.306-0.245,2.773-0.979,4.609l-3.931,11.363   c3.825-2.23,6.398-6.375,6.398-11.122C27.867,12.763,27.295,10.659,26.291,8.826z"/></g><path d="M15,0C6.729,0,0,6.729,0,15s6.729,15,15,15c8.271,0,15-6.729,15-15S23.271,0,15,0z M15,29.313  C7.108,29.313,0.688,22.892,0.688,15S7.108,0.688,15,0.688c7.891,0,14.312,6.42,14.312,14.312S22.891,29.313,15,29.313z" id="Circle"/>
</symbol>

</defs>
</svg>
