<svg style="position: absolute; width: 0; height: 0; overflow: hidden;" version="1.1" xmlns="http://www.w3.org/2000/svg" xmlns:xlink="http://www.w3.org/1999/xlink">
  <defs>
    <symbol id="icon-envelope-o" viewBox="0 0 32 32">
      <path class="path1" d="M29.714 26.857v-13.714q-0.571 0.643-1.232 1.179-4.786 3.679-7.607 6.036-0.911 0.768-1.482 1.196t-1.545 0.866-1.83 0.438h-0.036q-0.857 0-1.83-0.438t-1.545-0.866-1.482-1.196q-2.821-2.357-7.607-6.036-0.661-0.536-1.232-1.179v13.714q0 0.232 0.17 0.402t0.402 0.17h26.286q0.232 0 0.402-0.17t0.17-0.402zM29.714 8.089v-0.438t-0.009-0.232-0.054-0.223-0.098-0.161-0.161-0.134-0.25-0.045h-26.286q-0.232 0-0.402 0.17t-0.17 0.402q0 3 2.625 5.071 3.446 2.714 7.161 5.661 0.107 0.089 0.625 0.527t0.821 0.67 0.795 0.563 0.902 0.491 0.768 0.161h0.036q0.357 0 0.768-0.161t0.902-0.491 0.795-0.563 0.821-0.67 0.625-0.527q3.714-2.946 7.161-5.661 0.964-0.768 1.795-2.063t0.83-2.348zM32 7.429v19.429q0 1.179-0.839 2.018t-2.018 0.839h-26.286q-1.179 0-2.018-0.839t-0.839-2.018v-19.429q0-1.179 0.839-2.018t2.018-0.839h26.286q1.179 0 2.018 0.839t0.839 2.018z"></path>
    </symbol>
    <symbol id="icon-close" viewBox="0 0 25 32">
      <path class="path1" d="M23.179 23.607q0 0.714-0.5 1.214l-2.429 2.429q-0.5 0.5-1.214 0.5t-1.214-0.5l-5.25-5.25-5.25 5.25q-0.5 0.5-1.214 0.5t-1.214-0.5l-2.429-2.429q-0.5-0.5-0.5-1.214t0.5-1.214l5.25-5.25-5.25-5.25q-0.5-0.5-0.5-1.214t0.5-1.214l2.429-2.429q0.5-0.5 1.214-0.5t1.214 0.5l5.25 5.25 5.25-5.25q0.5-0.5 1.214-0.5t1.214 0.5l2.429 2.429q0.5 0.5 0.5 1.214t-0.5 1.214l-5.25 5.25 5.25 5.25q0.5 0.5 0.5 1.214z"></path>
    </symbol>
    <symbol id="icon-github" viewBox="0 0 27 32">
      <path class="path1" d="M13.714 2.286q3.732 0 6.884 1.839t4.991 4.991 1.839 6.884q0 4.482-2.616 8.063t-6.759 4.955q-0.482 0.089-0.714-0.125t-0.232-0.536q0-0.054 0.009-1.366t0.009-2.402q0-1.732-0.929-2.536 1.018-0.107 1.83-0.321t1.679-0.696 1.446-1.188 0.946-1.875 0.366-2.688q0-2.125-1.411-3.679 0.661-1.625-0.143-3.643-0.5-0.161-1.446 0.196t-1.643 0.786l-0.679 0.429q-1.661-0.464-3.429-0.464t-3.429 0.464q-0.286-0.196-0.759-0.482t-1.491-0.688-1.518-0.241q-0.804 2.018-0.143 3.643-1.411 1.554-1.411 3.679 0 1.518 0.366 2.679t0.938 1.875 1.438 1.196 1.679 0.696 1.83 0.321q-0.696 0.643-0.875 1.839-0.375 0.179-0.804 0.268t-1.018 0.089-1.17-0.384-0.991-1.116q-0.339-0.571-0.866-0.929t-0.884-0.429l-0.357-0.054q-0.375 0-0.518 0.080t-0.089 0.205 0.161 0.25 0.232 0.214l0.125 0.089q0.393 0.179 0.777 0.679t0.563 0.911l0.179 0.411q0.232 0.679 0.786 1.098t1.196 0.536 1.241 0.125 0.991-0.063l0.411-0.071q0 0.679 0.009 1.58t0.009 0.973q0 0.321-0.232 0.536t-0.714 0.125q-4.143-1.375-6.759-4.955t-2.616-8.063q0-3.732 1.839-6.884t4.991-4.991 6.884-1.839zM5.196 21.982q0.054-0.125-0.125-0.214-0.179-0.054-0.232 0.036-0.054 0.125 0.125 0.214 0.161 0.107 0.232-0.036zM5.75 22.589q0.125-0.089-0.036-0.286-0.179-0.161-0.286-0.054-0.125 0.089 0.036 0.286 0.179 0.179 0.286 0.054zM6.286 23.393q0.161-0.125 0-0.339-0.143-0.232-0.304-0.107-0.161 0.089 0 0.321t0.304 0.125zM7.036 24.143q0.143-0.143-0.071-0.339-0.214-0.214-0.357-0.054-0.161 0.143 0.071 0.339 0.214 0.214 0.357 0.054zM8.054 24.589q0.054-0.196-0.232-0.286-0.268-0.071-0.339 0.125t0.232 0.268q0.268 0.107 0.339-0.107zM9.179 24.679q0-0.232-0.304-0.196-0.286 0-0.286 0.196 0 0.232 0.304 0.196 0.286 0 0.286-0.196zM10.214 24.5q-0.036-0.196-0.321-0.161-0.286 0.054-0.25 0.268t0.321 0.143 0.25-0.25z"></path>
    </symbol>
    <symbol id="icon-wordpress" viewBox="0 0 32 32">
      <path class="path1" d="M2.268 16q0-2.911 1.196-5.589l6.554 17.946q-3.5-1.696-5.625-5.018t-2.125-7.339zM25.268 15.304q0 0.339-0.045 0.688t-0.179 0.884-0.205 0.786-0.313 1.054-0.313 1.036l-1.357 4.571-4.964-14.75q0.821-0.054 1.571-0.143 0.339-0.036 0.464-0.33t-0.045-0.554-0.509-0.241l-3.661 0.179q-1.339-0.018-3.607-0.179-0.214-0.018-0.366 0.089t-0.205 0.268-0.027 0.33 0.161 0.295 0.348 0.143l1.429 0.143 2.143 5.857-3 9-5-14.857q0.821-0.054 1.571-0.143 0.339-0.036 0.464-0.33t-0.045-0.554-0.509-0.241l-3.661 0.179q-0.125 0-0.411-0.009t-0.464-0.009q1.875-2.857 4.902-4.527t6.563-1.67q2.625 0 5.009 0.946t4.259 2.661h-0.179q-0.982 0-1.643 0.723t-0.661 1.705q0 0.214 0.036 0.429t0.071 0.384 0.143 0.411 0.161 0.375 0.214 0.402 0.223 0.375 0.259 0.429 0.25 0.411q1.125 1.911 1.125 3.786zM16.232 17.196l4.232 11.554q0.018 0.107 0.089 0.196-2.25 0.786-4.554 0.786-2 0-3.875-0.571zM28.036 9.411q1.696 3.107 1.696 6.589 0 3.732-1.857 6.884t-4.982 4.973l4.196-12.107q1.054-3.018 1.054-4.929 0-0.75-0.107-1.411zM16 0q3.25 0 6.214 1.268t5.107 3.411 3.411 5.107 1.268 6.214-1.268 6.214-3.411 5.107-5.107 3.411-6.214 1.268-6.214-1.268-5.107-3.411-3.411-5.107-1.268-6.214 1.268-6.214 3.411-5.107 5.107-3.411 6.214-1.268zM16 31.268q3.089 0 5.92-1.214t4.875-3.259 3.259-4.875 1.214-5.92-1.214-5.92-3.259-4.875-4.875-3.259-5.92-1.214-5.92 1.214-4.875 3.259-3.259 4.875-1.214 5.92 1.214 5.92 3.259 4.875 4.875 3.259 5.92 1.214z"></path>
    </symbol>
    <symbol id="icon-happy" viewBox="0 0 512 512">
      <style type="text/css"> .stt0{fill:#FFCE07;} .stt1{fill:#272014;} .stt2{fill:#483D24;} .stt3{fill:#562A15;} </style><g><circle class="stt0" cx="256" cy="256" r="128"/><g><g><g><path class="stt1" d="M278.4,203.1c-8.2,2.7-18.3,3.2-22.3,3.2c-4-0.1-14.2-0.5-22.4-3.2c-15.6-5.2-40.6-8.5-59.7-8      c-14.1,0.3-28.8,2.2-37.9,4.1c-4,0.8-6.6,4.8-5.7,8.8l1,4.2c0.6,2.4,2.5,4.2,4.8,5.1c1.2,0.4,2.4,1.2,2.9,2.7      c1.6,4.4,10.5,30.5,15.3,40.2c3.9,7.9,14.6,14.7,39.3,14.8c35.2,0.1,47.4-23.1,53-38.2c0.6-1.6,1.5-4.6,2.3-7.5      c1.1-4.2,3.7-8.3,4.8-8.9c0.7-0.3,1.5-0.6,2.2-0.6c0.8,0,1.6,0.3,2.2,0.6c1.1,0.6,3.6,4.7,4.8,8.9c0.8,2.9,1.7,5.9,2.3,7.5      c5.6,15,17.8,38.3,53,38.2c24.7-0.1,35.4-6.9,39.3-14.8c4.8-9.7,13.6-35.8,15.3-40.2c0.5-1.4,1.7-2.2,2.9-2.7      c2.4-0.8,4.2-2.6,4.8-5.1l1-4.2c0.9-4-1.6-8-5.7-8.8c-9.1-1.8-23.8-3.7-37.9-4.1C318.9,194.6,293.9,197.9,278.4,203.1z"/></g><g><path class="st2" d="M272.5,226.4c0.7,17.1,17.4,33.5,32.9,37.2c22.9,5.5,40,0.6,49.8-20.4c2.9-6.3,9.2-20.1,8.8-27.5      c-0.7-12.8-16.9-10.5-27.3-10.8C335.6,204.9,271.5,203.1,272.5,226.4z"/></g><g><path class="stt2" d="M240.1,226.4c-0.7,17.1-17.4,33.5-32.9,37.2c-22.9,5.5-40,0.6-49.8-20.4c-2.9-6.3-9.2-20.1-8.8-27.5      c0.7-12.8,16.9-10.5,27.3-10.8C177,204.9,241.1,203.1,240.1,226.4z"/></g></g></g><g><path class="stt3" d="M283.3,321.5c-3.4,0-6.9-0.3-10.4-0.8c-3.4-0.5-5.8-3.7-5.3-7.1c0.5-3.4,3.7-5.8,7.1-5.3    c19.8,3,37.4-4.5,44.8-19.1c1.6-3.1,5.3-4.3,8.4-2.7c3.1,1.6,4.3,5.3,2.7,8.4C322.2,311.7,304.2,321.5,283.3,321.5z"/></g></g>
    </symbol>
    <symbol id="icon-question" viewBox="0 0 128 128">
      <defs><style>.cls-1{fill:#ff7d00;}.cls-2{fill:#fff;}</style></defs><title/><circle class="cls-1" cx="64" cy="64" r="60"/><path class="cls-2" d="M59.11,76.19Q59,75.51,59,74.88c0-.42,0-.86,0-1.32a16,16,0,0,1,1.19-6.46,17,17,0,0,1,3-4.72,24,24,0,0,1,4-3.48q2.12-1.49,4-3a18,18,0,0,0,3-3.06,6.08,6.08,0,0,0,1.19-3.78,5.59,5.59,0,0,0-2.46-4.76q-2.47-1.78-7.65-1.78a14.72,14.72,0,0,0-4.84.76,24.34,24.34,0,0,0-4.08,1.83,25.88,25.88,0,0,0-3.31,2.21q-1.45,1.15-2.55,1.91L45,42.12a24.75,24.75,0,0,1,4.63-3.91,28.61,28.61,0,0,1,5.48-2.8,33.24,33.24,0,0,1,5.95-1.66,34,34,0,0,1,6-.55q9.26,0,14.4,3.87a12.36,12.36,0,0,1,5.14,10.41,17.12,17.12,0,0,1-1.32,7.18A16.23,16.23,0,0,1,82,59.5,28.73,28.73,0,0,1,77.59,63a39.35,39.35,0,0,0-4.33,3.27,16.41,16.41,0,0,0-3.36,4,11.36,11.36,0,0,0-1.36,5.86Zm-1.7,12.07a6.13,6.13,0,0,1,1.87-4.72,6.94,6.94,0,0,1,4.93-1.74,7.19,7.19,0,0,1,5.1,1.74,6.14,6.14,0,0,1,1.87,4.72A6.27,6.27,0,0,1,69.31,93a7.08,7.08,0,0,1-5.1,1.78A6.84,6.84,0,0,1,59.28,93,6.27,6.27,0,0,1,57.42,88.26Z"/>
    </symbol>
    <symbol id="icon-ds_facebook" viewBox="0 0 30 30">
      <g><path d="M22,16l1-5l-5,0.001V7c0-1.544,0.784-2,3-2h2V0c0,0-2.05,0-4,0c-4.072,0-7,2.435-7,7v4l-5,0v5h5v14h6V16H22z" id="f"/></g>
    </symbol>
    <symbol id="icon-ds_twitter" viewBox="0 0 30 30">
      <g><path d="M30,6.708C28.895,7.199,27.244,7.851,26,8c1.273-0.762,2.539-2.561,3-4c-0.971,0.577-2.087,1.355-3.227,1.773    L25,5c-1.121-1.197-2.23-2-4-2c-3.398,0-6,2.602-6,6c0,0.399,0.047,0.7,0.11,0.956L15,10C9,10,5.034,8.724,2,5    C1.469,5.908,1,6.872,1,8c0,2.136,1.348,3.894,3,5c-1.009-0.033-2.171-0.542-3-1c0,2.98,4.186,6.432,7,7c-1,1-4.623,0.074-5,0    c0.784,2.447,3.309,3.949,6,4c-2.105,1.648-4.647,2.51-7.531,2.51c-0.498,0-0.987-0.029-1.469-0.084C2.723,27.17,6.523,28,10,28    c11.322,0,17-8.867,17-17c0-0.268,0.008-0.736,0-1C28.201,9.132,29.172,7.942,30,6.708z" id="Brid"/></g>
    </symbol>
    <symbol id="icon-ds_googleplus" viewBox="0 0 30 30">
      <polygon id="_x2B_" points="30,13 26,13 26,9 24,9 24,13 20,13 20,15 24,15 24,19 26,19 26,15 30,15 "/><path d="M15,17c0,0-2-1.15-2-2c0,0-0.499-1.828,1-3c1.537-1.2,3-3.035,3-5c0-2.336-1.046-5-3-6h3l2.387-1  c0,0-7.063,0-9.387,0C5.835,0,2,3.345,2,7c0,3.735,2.849,6.56,7.086,6.56c0.295,0,0.581-0.006,0.861-0.025  c-0.274,0.526-0.472,1.119-0.472,1.735c0,1.037,0.818,2.042,1.524,2.73c-0.533,0-1.438,0-2,0c-5.159,0-9,2.593-9,6  c0,3.355,4.872,6,10.031,6c5.882,0,9.97-3,9.97-7C20,20.311,17.455,18.736,15,17z M11,13c-2.395,0-5.587-2.857-6-6  C4.587,3.856,6.607,0.929,9,1c2.394,0.071,4.603,2.908,5.017,6.052C14.429,10.195,13,13,11,13z M10,28c-3.566,0-7-1.289-7-4  c0-2.658,3.434-5.038,7-5c0.832,0.009,2,0,2,0c1,0,2.88,0.881,4,2c1,1,1,2.674,1,3C17,27,15.014,28,10,28z" id="g"/>
    </symbol>
    <symbol id="icon-ds_linkedin" viewBox="0 0 30 30">
      <g><path d="M11,10h6v3l0,0c0.83-1.572,2.977-3,6-3c6.291,0,7,3.616,7,9v11h-6V20c0-2.318,0.188-5-3-5c-4,0-4,2.393-4,5v10h-6    V10z" id="n"/><rect height="20" id="_x7C_" width="6" x="1" y="10"/><circle cx="4" cy="3.5" id="_x28____x29_" r="3.5"/></g>
    </symbol>
    <symbol id="icon-ds_pinterest" viewBox="0 0 30 30">
      <path d="M16,0C7.813,0,3,6.105,3,11c0,2.964,2,6,3,6s2,0,2-1s-2-2-2-5c0-4.354,4.773-8,10-8c4.627,0,7,3.224,7,7  c0,4.968-2.735,9-6,9c-1.803,0-3.433-1.172-3-3c0.519-2.184,1-2,2-6c0.342-1.368-0.433-3-2-3c-1.843,0-4,1.446-4,4c0,1.627,1,3,1,3  s-2.245,7.863-2.576,9.263C7.766,26.049,6.938,30,7.938,30S10,28,12,23c0.295-0.738,1-3,1-3c0.599,1.142,3.14,2,5,2  c5.539,0,9-5.24,9-12C27,4.888,22.58,0,16,0z" id="P"/>
    </symbol>
    <symbol id="icon-ds_whatsapp" viewBox="0 0 512 512">
      <g><path d="M10.8,507.9c6.9-20.7,13.4-40.1,19.9-59.5c6.5-19.2,12.3-38.7,19.7-57.6c3.8-9.6,2.6-16.8-2.2-25.8   c-26.2-48.6-34-100.7-24.9-154.9c7.7-45.9,27.2-86.5,58.7-121C133.9,32.4,198.7,5.2,275.3,8.4c56.1,2.3,105.7,22.8,148,59.9   c39.4,34.5,65.1,77.4,77,128.4c9.6,41.1,8.5,82-3.3,122.5c-15,51.3-43.7,93.6-86.4,125.8c-59.3,44.8-125.8,58.7-198.3,44.6   c-21.8-4.2-42.6-12-62.2-22.6c-3.2-1.7-5.9-2.1-9.4-0.9c-37.2,12-74.5,23.9-111.7,35.8C23.4,503.7,17.7,505.6,10.8,507.9z    M74.1,445.2c2-0.5,2.9-0.7,3.8-1c23.3-7.4,46.6-14.9,70-22.1c2.2-0.7,5.2-0.1,7.3,0.9c10.1,5,19.8,11,30.2,15.4   c42.8,18.1,86.9,21,131.5,8.6c53.2-14.9,94-46.6,121.9-94.5c23.9-41,32.1-85.3,24.7-131.9c-9.4-59.3-39.8-105.9-90.1-139   C329.8,53,281.8,43.3,230.6,51.4c-44.1,7-81.8,27.1-112.9,59.3c-26.7,27.6-44.6,60.2-52.4,97.7c-11.1,53.7-2.9,104.5,26.9,150.8   c6,9.3,5.8,16.4,2.2,25.9C87.1,404.6,81,424.5,74.1,445.2z"/><path d="M389.3,321.8c-0.3,19.3-9.4,34-27.8,43.2c-18.1,9-36.5,11.3-55.4,3.9c-17-6.7-34.2-13.2-50.6-21.3   c-21.6-10.7-39.3-26.7-55.5-44.4c-17.9-19.6-33.1-41.4-45.6-64.7c-8.9-16.5-14.3-34-12.4-53.2c2-20.4,11.5-36.7,27.5-49   c3.2-2.4,8-3.5,12.1-3.9c5.3-0.4,10.6,0.4,15.9,0.8c4.4,0.4,6.8,3.5,8.3,7.1c3.9,9.6,7.4,19.2,11.1,28.9c2.5,6.5,4.4,13.3,7.4,19.6   c3.7,7.8,1.4,14.3-3.4,20.3c-4.1,5.1-8.4,10-13.1,14.4c-3.9,3.7-4.6,7.5-2,12c11.5,20.5,25.5,38.9,44,53.8   c12.2,9.8,25.7,17.1,39.7,23.9c4.1,2,8.1,1.7,11.3-2c6.9-7.9,13.9-15.7,20.7-23.7c4.4-5.1,6.6-6.1,12.5-3.1   c17.1,8.6,34,17.5,51,26.4C389,313,390,316.6,389.3,321.8z"/></g>
    </symbol>
    <symbol id="icon-ds_stumbleupon" viewBox="0 0 512 512">
      <g><path d="M144.9,246c0-24.8-0.4-49.7,0.1-74.5c0.8-42.8,20-75.4,56.7-97c29.3-17.2,60.8-19.7,92.8-8.3c32.4,11.6,55,34,67.6,66.2   c5.1,13,7.1,26.6,7.2,40.5c0.1,9-0.1,18,0.1,27c0,3.1-0.9,4.8-4.1,5.8c-14.4,4.3-28.8,8.8-43.3,13c-2.1,0.6-4.8,0.6-6.8-0.3   c-9.5-4.2-18.9-8.7-28.2-13.4c-1.5-0.7-2.9-3.1-3-4.8c-0.3-8.8-0.1-17.7-0.1-26.5c-0.1-19.5-17.3-32-35.9-26   c-10.4,3.3-17.7,13.8-17.7,25.6c-0.1,27.2,0,54.3-0.1,81.5c0,26,0.3,52-0.1,78c-0.6,38.5-17.1,69.1-48.2,91.3   c-22.6,16.1-48.6,22.7-76.1,19.3c-42.1-5.3-72.6-27.6-90.7-66.2c-6.7-14.3-9.8-29.6-9.8-45.4c-0.1-21.5,0.1-43-0.1-64.5   c0-4.2,1.2-5.5,5.3-5.4c25.2,0.1,50.3,0.2,75.5,0c4.3,0,5.8,1.1,5.7,5.6c-0.2,20.8,0,41.7-0.1,62.5c-0.1,11.8,5.3,20.3,15.7,24.9   c10.3,4.6,20.3,3,28.8-4.6c6.1-5.4,8.8-12.6,8.8-20.8C144.8,301.7,144.8,273.8,144.9,246z"/><path d="M284.3,262.8c6.5,3,12.6,5.7,18.7,8.6c3.5,1.6,6.8,3.6,10.3,4.9c2.3,0.8,5.1,1.6,7.2,1c15.8-4.3,31.6-8.9,48-13.7   c0.2,2.2,0.6,4.2,0.6,6.3c0,20.7,0.1,41.3,0,62c0,11.2,4.3,19.8,14.3,25.5c16,9.2,38.2-2.5,38.6-20.9c0.4-22.8,0.3-45.7,0-68.5   c-0.1-5,1.7-6.1,6.3-6.1c24.7,0.2,49.3,0.2,74,0c4.7,0,6.3,1.1,6.2,6.1c-0.3,20.7,0,41.3-0.2,62c-0.4,43-18.6,76.1-55.6,98.5   c-26.6,16.1-55.3,19.5-84.9,12.1c-27.7-6.9-49.7-22.9-65.6-46.8c-11-16.5-17.7-34.7-18.2-54.5c-0.6-24.5-0.2-49-0.3-73.5   C283.9,264.9,284.1,264.1,284.3,262.8z"/></g>
    </symbol>
    <symbol id="icon-ds_reddit" viewBox="0 0 512 512">
      <g><path d="M190.7,457.4c0,0,0-0.4-0.1-0.7c-2.9-11.4-9.2-18.4-20.3-24.1c-21.3-10.9-31.4-31.1-34.6-54.3c-3.7-27,2.7-51.3,22.5-71   c4.5-4.5,10.1-8,14.4-11.3c-11.4-6.4-23.8-12.5-35.2-20.1c-19.5-13.1-34.6-30.2-41.7-53.2c-3.1-10-4.6-20.2-2.8-30.6   c0.5-2.9-0.6-4.5-2.8-6.2c-18.2-14.4-21.8-39.6-8.3-58c13.6-18.5,38.8-22.2,58.2-8.5c2.1,1.5,3.6,1.4,5.7,0.1   c31-18.6,65-26.8,100.8-28.2c4.7-0.2,6.5-1.7,7.8-6.1c7.1-23.4,14.6-46.7,22-70c2.2-7,4.6-8.3,12-6.6c20.4,4.8,40.8,9.5,60.2,14.1   c4.8-5,8.5-10.3,13.4-14c12.4-9.3,29.5-8.3,41.7,1.6c11.2,9.1,15.4,25.7,9.9,39c-6,14.6-20.2,23.1-35.9,21.6   c-14.6-1.4-27.4-13.2-29.6-28.2c-0.7-4.9-2.7-6.5-7.2-7.5c-17.2-3.8-34.3-7.9-52.1-12c-7.2,22.6-14.3,45-21.3,67.2   c12.8,1.9,25.4,3.3,37.8,5.6c22.3,4.2,43.2,12,62.6,24c2.3,1.5,3.9,1.3,6.1-0.3c19.4-14.2,44.8-10.4,58.9,8.7   c13.6,18.4,9.2,44.4-9.6,58.6c-1.4,1.1-3.1,3.3-2.9,4.9c2.8,34.4-13,59.9-39.1,79.7c-12.6,9.6-27.1,16.7-39.8,24.4   c5.3,4.6,12.5,9.6,18.2,16c29.6,32.9,24.2,91.2-10.8,117.4c-4.8,3.6-10.9,5.6-16.2,8.7c-2,1.2-4.1,3.1-5.1,5.1   c-2.2,4.6-3.6,9.6-5.5,14.7c5.5,0.7,10.8,0.9,15.8,2.3c16.8,4.4,29,13.9,32.8,31.8c0.4,1.9,0.5,4,0.5,6   c-0.3,11.5-2.9,13.9-14.2,13.9c-67.7,0-135.3,0-203,0c-7.6,0-9.4-1.4-10.7-8.7c-3.2-17.2,7.3-34.4,26.1-40.9   C175.8,459.7,183.2,459,190.7,457.4z M259.2,105c-20.4,0.1-38.1,1.8-55.5,6.1c-28.9,7.2-55.4,19-76.4,40.9   c-26.4,27.5-28.1,62.5-4.2,92.1c14.1,17.4,32.5,29,53.1,36.9c49,19,98.7,20,148.7,4.2c25.3-8,48.1-20.6,65.1-41.7   c17.2-21.4,21.7-45,9.9-70.5c-8.6-18.5-23.3-31.4-40.5-41.7C327.8,112.5,293.1,105.5,259.2,105z M324.9,300.2   c-46.2,13.1-91.3,13-137.2,0c-1,14.2-2.4,27.4-2.7,40.7c-0.8,36.8,3.7,72.8,17.3,107.2c6.5,16.5,15,31.9,28.5,44   c4.4,3.9,8.9,6.5,15.2,6c6.1-0.5,12.4-0.6,18.5,0c8.1,0.9,14.2-2.1,19.5-7.7c0.9-1,1.9-1.9,2.8-2.8c13.1-14,21.1-31,27.2-48.9   c11.1-32.7,14.8-66.5,13.8-100.9C327.4,325.6,325.9,313.4,324.9,300.2z M340,312.5c4,37.6,1.5,73.5-6.7,110.4   c21.5-13.5,30.4-32.3,31-55.2C365,346.2,358.1,327.6,340,312.5z M171.7,314.5c-18.8,15.9-25,36.6-22.4,60   c2.2,20.1,11.1,36.6,30.1,48C170.7,386.2,169.3,350.5,171.7,314.5z M381.7,57c11.1-0.1,20.3-9.4,20.2-20.5   c-0.1-11.1-9.5-20.3-20.5-20.2c-11.1,0.1-20.3,9.4-20.2,20.6C361.3,48.1,370.4,57.1,381.7,57z M356.7,497.8   c0.3-6-1.9-10.7-5.6-14.5c-9.8-10.1-21.9-12.5-35.3-9.7c-0.9,0.2-2.1,0.6-2.5,1.3c-5.3,7.5-10.5,15.1-15.8,22.8   C317.2,497.8,336.7,497.8,356.7,497.8z M215.5,497.8c-4.3-5.8-9.2-10.7-12-16.6c-3.9-8.4-10.5-9.5-18-8.5c-5.2,0.7-10.5,2-15.2,4.3   c-8.3,4.1-13.8,10.6-13.9,20.8C176.2,497.8,195.7,497.8,215.5,497.8z M383,130.7c14.5,11.8,25.9,26,32.8,43.6   c12.6-10.3,14.1-27.5,4-39.5C410.7,123.9,393.5,121.9,383,130.7z M130.3,130.1c-11.9-8.8-29-5.4-37.8,6.9c-8,11.2-5.8,28.4,4.9,36   C104.2,155.7,115.8,142,130.3,130.1z"/><path d="M227.1,180.4c0,14.1-11.1,25.4-25.2,25.4c-14.1,0-25.3-11.1-25.4-25.3c0-14.1,11.2-25.5,25.2-25.5   C215.7,155,227.1,166.4,227.1,180.4z"/><path d="M337.9,180.7c-0.1,14-11.6,25.2-25.6,25.1c-14-0.1-25.3-11.6-25.2-25.6c0.1-14,11.7-25.3,25.6-25.2   C326.6,155.2,338,166.8,337.9,180.7z"/><path d="M257,271.3c-15.3-0.3-30.4-1.7-44.3-8.5c-5.3-2.6-10.1-6.4-14.7-10.2c-3.1-2.6-3-7.2-0.3-9.8c3-2.8,6.6-3.1,9.5-0.4   c11.3,10.6,25.5,13.3,40.1,14.2c13.5,0.9,27.1,0.9,40-3.7c6.3-2.2,12.2-5.9,17.8-9.5c4.4-2.8,8.3-3.6,11.2-0.6   c2.9,3.1,2.3,7.5-1.8,11.2c-10.8,9.9-24.1,13.8-38.1,15.7C270,270.7,263.5,270.8,257,271.3z"/></g>
    </symbol>
    <symbol id="icon-ds_vk" viewBox="0 0 30 30">
      <path d="M16,24c1,0,1-1.441,1-2c0-1,1-2,2-2s2.715,1.715,4,3c1,1,1,1,2,1s3,0,3,0  s2-0.076,2-2c0-0.625-0.685-1.685-3-4c-2-2-3.026-0.967,0-5c1.843-2.456,3.184-4.681,2.954-5.323C29.734,7.064,24.608,6.088,24,7  c-2,3-2.367,3.735-3,5c-1,2-1.099,3-2,3c-0.909,0-1-1.941-1-3c0-3.306,0.479-5.644-1-6c0,0-2,0-3,0c-1.61,0-3,1-3,1  s-1.241,0.968-1,1c0.298,0.04,2-0.414,2,1c0,1,0,2,0,2s0.009,4-1,4c-1,0-3-4-5-7C5.215,6.823,5,7,4,7C2.928,7,2.001,7.042,1,7.042  C0,7.042-0.128,7.679,0,8c2,5,3.437,8.14,7.237,12.096C10.722,23.725,13.05,23.918,15,24C15.5,24.021,15,24,16,24z"/>
    </symbol>
    <symbol id="icon-ds_buffer" viewBox="0 0 512 512">
      <g><g><path d="M70.7,164.5l169.2,81.7c4.4,2.1,10.3,3.2,16.1,3.2s11.7-1.1,16.1-3.2l169.2-81.7c8.9-4.3,8.9-11.3,0-15.6L272.1,67.2    c-4.4-2.1-10.3-3.2-16.1-3.2s-11.7,1.1-16.1,3.2L70.7,148.9C61.8,153.2,61.8,160.2,70.7,164.5z"/><path d="M441.3,248.2c0,0-30.9-14.9-35-16.9s-5.2-1.9-9.5,0.1s-124.8,60.2-124.8,60.2c-4.5,2.1-10.3,3.2-16.1,3.2    s-11.7-1.1-16.1-3.2c0,0-117.3-56.6-122.8-59.3c-6-2.9-7.7-2.9-13.1-0.3c-5.6,2.7-33.4,16.1-33.4,16.1c-8.9,4.3-8.9,11.3,0,15.6    l169.2,81.7c4.4,2.1,10.3,3.2,16.1,3.2s11.7-1.1,16.1-3.2l169.2-81.7C450.2,259.5,450.2,252.5,441.3,248.2z"/></g><path d="M441.3,347.5c0,0-30.9-14.9-35-16.9s-5.2-1.9-9.5,0.1S272.1,391,272.1,391c-4.5,2.1-10.3,3.2-16.1,3.2s-11.7-1.1-16.1-3.2   c0,0-117.3-56.6-122.8-59.3c-6-2.9-7.7-2.9-13.1-0.3c-5.6,2.7-33.4,16.1-33.4,16.1c-8.9,4.3-8.9,11.3,0,15.6l169.2,81.7   c4.4,2.2,10.3,3.2,16.1,3.2s11.7-1.1,16.1-3.2l169.2-81.7C450.2,358.8,450.2,351.8,441.3,347.5z"/></g>
    </symbol>
  </defs>
</svg>
