<?xml version="1.0" ?><!DOCTYPE svg  PUBLIC '-//W3C//DTD SVG 1.1//EN'  'http://www.w3.org/Graphics/SVG/1.1/DTD/svg11.dtd'><svg enable-background="new 0 0 512 512" height="512px" id="Layer_1" version="1.1" viewBox="0 0 512 512" width="512px" xml:space="preserve" xmlns="http://www.w3.org/2000/svg" xmlns:xlink="http://www.w3.org/1999/xlink"><g><g opacity="0.12"><g><rect fill="none" height="127.053" width="407.444" x="39.723" y="383.947"/><path d="M447.167,447.461c0,35.105-91.2,63.539-203.723,63.539c-112.512,0-203.722-28.434-203.722-63.539     c0-35.08,91.209-63.514,203.722-63.514C355.967,383.947,447.167,412.381,447.167,447.461" fill="#231F20"/></g></g><path d="M91.725,380.912c0,0-16.017,18.848-4.715,47.111c11.305,28.275,73.506,15.09,75.387,0   c0,0,49.951,8.484,36.758-33.926c0,0-5.657-9.416-12.247-13.186H91.725z" fill="#989897"/><path d="M221.768,423.32c0,0-26.379,26.373,0,53.703c26.385,27.332,92.355,11.309,86.708-11.307   c0,0,70.672,13.199,58.425-32.979s-26.51-34.871-26.51-34.871L221.768,423.32z" fill="#989897"/><path d="M98.318,309.281c0,0,7.545,36.748-6.59,71.617c0,0,12.244,32.992,58.421,11.322   c0,0,34.867,9.416,36.754-11.322v-26.451C186.904,354.447,133.185,305.512,98.318,309.281" fill="#F3CBA2"/><path d="M219.886,362.053c0,0,6.596,28.277,1.881,61.268c0,0,44.3,37.682,75.4,0c0,0,46.27,8.984,48.102-26.596   c0,0-17.954-22.418-24.554-53.52L219.886,362.053z" fill="#F3CBA2"/><path d="M91.725,292.326c0,0-25.453,35.803-44.293,0c0,0-40.521,1.879-20.731-28.277   c0,0-30.689-14.131-5.447-30.154c0,0-4.922-35.815,19.582-14.131c0,0-4.715-27.331,17.908-28.277L91.725,292.326z" fill="#4C78B2"/><path d="M282.583,359.229c0,0-19.347,49.947-52.331,5.66c0,0-46.175,39.205-53.72-10.545   c0,0-55.598,18.07-55.598-35.633c0,0-54.656,8.484-43.344-45.244c0,0-50.893-14.119-20.738-55.595c0,0-33.917-29.209,1.888-45.232   c0,0-32.042-44.287,14.135-52.771c0,0-32.982-61.255,41.463-55.595c0,0,9.528-49.001,48.105-25.439   c0,0,11.266-42.415,52.735-12.267c0,0,38.685-55.595,67.405-2.824c0,0,59.816-22.609,49.441,34.87c0,0,68.794-14.131,46.178,55.595   l-46.178,213.921C332.024,328.129,325.483,379.021,282.583,359.229" fill="#3C599F"/><path d="M209.465,164.398v19.379H245.1l-5.362,34.43h-30.272l0.345,87.694h-35.29v-87.523h-29.062v-34.601h29.062   v-24.842c0,0-1.038-45.39,38.058-45.39H245.1v32.17h-21.97C223.13,145.715,209.465,145.026,209.465,164.398z" fill="#FFFFFF"/><path d="M324.485,157.562c0,0-33.917-60.31-94.237-39.578c0,0-15.074,65.031,64.095,81.993   c0,0-66.919,144.187,41.45,160.197c0,0,38.639,60.311,84.816,20.738c0,0,45.232,37.68,71.617-37.707   c26.393-75.387-1.878-87.626-29.209-133.805c0,0,49.002-14.329,35.815-95.744c0,0-51.838-3.205-75.394,25.059L324.485,157.562z" fill="#F3CBA2"/><path d="M451.711,327.195   c0,0-26.938,39.52-68.938,0" fill="none" stroke="#C8A988" stroke-linecap="round" stroke-miterlimit="10" stroke-width="4.7474"/><path d="M354.646,327.195   c0,0-26.385-1.891-26.385-29.221" fill="none" stroke="#C8A988" stroke-linecap="round" stroke-miterlimit="10" stroke-width="4.7474"/><path d="M423.44,344.756   c0,0,8.104,28.525-2.83,36.143" fill="none" stroke="#C8A988" stroke-linecap="round" stroke-miterlimit="10" stroke-width="4.7474"/><path d="M334.447,316.939   c0,0-12.037,27.475,1.353,43.234" fill="none" stroke="#C8A988" stroke-linecap="round" stroke-miterlimit="10" stroke-width="4.7474"/><path d="M442.287,232.017c0,9.075,4.21,16.443,9.424,16.443c5.201,0,9.423-7.368,9.423-16.443   c0-9.088-4.222-16.443-9.423-16.443C446.497,215.573,442.287,222.928,442.287,232.017" fill="#434445"/><path d="M345.217,232.017c0,9.075,4.21,16.443,9.424,16.443c5.2,0,9.43-7.368,9.43-16.443   c0-9.088-4.229-16.443-9.43-16.443C349.427,215.573,345.217,222.928,345.217,232.017" fill="#434445"/><path d="M311.299,192.11c0,0,10.836-64.703-67.851-59.049C243.448,133.061,242.505,182.831,311.299,192.11" fill="#F6B5CE"/><path d="M480.92,136.364c0,0-47.452-14.604-54.597,47.59C426.323,183.954,476.678,202.321,480.92,136.364" fill="#F6B5CE"/><path d="M417.235,113.538c0,0-15.918-39.375-48.903-6.869c0,0-46.67-31.087-45.725,15.557   c0,0-51.011,14.789-6.127,42.415c0,0-15.924,48.056,28.782,31.087c0,0,14.565,37.417,45.193,3.638c0,0,36.419,30.286,35.867-19.182   c0,0,44.721-2.909,11.965-30.424C438.288,149.761,468.056,106.269,417.235,113.538" fill="#4C78B2"/></g></svg>