<?xml version="1.0" ?><svg enable-background="new 0 0 32 32" version="1.1" viewBox="0 0 32 32" xml:space="preserve" xmlns="http://www.w3.org/2000/svg" xmlns:xlink="http://www.w3.org/1999/xlink"><g id="Flat_copy"><g><path d="M28.003,32h-24c-2.2,0-4-1.8-4-4V4c0-2.2,1.8-4,4-4h24c2.2,0,4,1.8,4,4v24C32.003,30.2,30.203,32,28.003,32z"/><path d="M28.003,29.833h-24c-2.2,0-4-1.8-4-4V4c0-2.2,1.8-4,4-4h24c2.2,0,4,1.8,4,4v21.833    C32.003,28.033,30.203,29.833,28.003,29.833z" fill="#E50914"/><g><defs><path d="M28.003,29.833h-24c-2.2,0-4-1.8-4-4V4c0-2.2,1.8-4,4-4h24c2.2,0,4,1.8,4,4v21.833      C32.003,28.033,30.203,29.833,28.003,29.833z" id="SVGID_51_"/></defs><clipPath id="SVGID_2_"><use overflow="visible" xlink:href="#SVGID_51_"/></clipPath><g clip-path="url(#SVGID_2_)"><polygon fill="#FFFFFF" opacity="0.25" points="0.003,22.175 32.003,10.923 32.003,0 0.003,0     "/></g></g></g><g><path d="M13.692,23.821h3.679v-8.904h2.454l0.325-3.068h-2.779l0.004-1.536c0-0.8,0.076-1.229,1.224-1.229h1.534    V6.015h-2.455c-2.949,0-3.986,1.489-3.986,3.992v1.842h-1.838v3.069h1.838V23.821z" fill="#FFFFFF"/></g></g></svg>