<?xml version="1.0" ?><svg enable-background="new 0 0 32 32" version="1.1" viewBox="0 0 32 32" xml:space="preserve" xmlns="http://www.w3.org/2000/svg" xmlns:xlink="http://www.w3.org/1999/xlink"><g id="Flat_copy"><g><path d="M28.008,31.995h-24c-2.2,0-4-1.8-4-4v-24c0-2.2,1.8-4,4-4h24c2.2,0,4,1.8,4,4v24    C32.008,30.195,30.208,31.995,28.008,31.995z"/><path d="M28.008,29.828h-24c-2.2,0-4-1.8-4-4V3.995c0-2.2,1.8-4,4-4h24c2.2,0,4,1.8,4,4v21.833    C32.008,28.028,30.208,29.828,28.008,29.828z" fill="#E50914"/><g><defs><path d="M28.008,29.828h-24c-2.2,0-4-1.8-4-4V3.995c0-2.2,1.8-4,4-4h24c2.2,0,4,1.8,4,4v21.833      C32.008,28.028,30.208,29.828,28.008,29.828z" id="SVGID_95_"/></defs><clipPath id="SVGID_2_"><use overflow="visible" xlink:href="#SVGID_95_"/></clipPath><g clip-path="url(#SVGID_2_)"><polygon fill="#FFFFFF" opacity="0.25" points="0.008,22.169 32.008,10.917 32.008,-0.005 0.008,-0.005     "/></g></g></g><g><g><path d="M18.212,6.098c0,0-4.049,0-5.435,0c-2.486,0-4.827,1.745-4.827,3.926c0,2.229,1.695,3.962,4.224,3.962     c0.176,0,0.347-0.04,0.515-0.052c-0.166,0.313-0.28,0.65-0.28,1.017c0,0.62,0.332,1.114,0.753,1.524     c-0.316,0-0.625,0.004-0.961,0.004c-3.08,0.001-5.45,1.961-5.45,3.995c0,2.003,2.599,3.258,5.679,3.258     c3.512,0,5.451-1.994,5.451-3.997c0-1.606-0.474-2.568-1.939-3.607c-0.502-0.354-1.46-1.217-1.46-1.725     c0-0.594,0.169-0.887,1.065-1.587c0.916-0.716,1.566-1.57,1.566-2.743c0-1.394-0.6-3.095-1.766-3.095h1.984L18.212,6.098z      M16.388,19.388c0.042,0.187,0.068,0.378,0.068,0.572c0,1.619-1.045,2.884-4.038,2.884c-2.129,0-3.666-1.347-3.666-2.966     c0-1.586,1.907-2.908,4.037-2.884c0.495,0.005,0.959,0.086,1.379,0.22C15.324,18.019,16.152,18.473,16.388,19.388z      M12.978,13.349c-1.429-0.041-2.788-1.598-3.034-3.474c-0.246-1.878,0.712-3.314,2.141-3.272c1.428,0.044,2.788,1.55,3.034,3.426     C15.365,11.906,14.407,13.392,12.978,13.349z" fill="#FFFFFF"/><polygon fill="#FFFFFF" points="22.62,13.145 22.62,10.5 20.857,10.5 20.857,13.145 18.212,13.145 18.212,14.908 20.857,14.908      20.857,17.553 22.62,17.553 22.62,14.908 25.265,14.908 25.265,13.145    "/></g></g></g></svg>