<?xml version="1.0" ?><!DOCTYPE svg  PUBLIC '-//W3C//DTD SVG 1.1//EN'  'http://www.w3.org/Graphics/SVG/1.1/DTD/svg11.dtd'><svg enable-background="new 0 0 512 512" height="512px" id="Layer_1" version="1.1" viewBox="0 0 512 512" width="512px" xml:space="preserve" xmlns="http://www.w3.org/2000/svg" xmlns:xlink="http://www.w3.org/1999/xlink"><g><g opacity="0.12"><g><rect fill="none" height="127.054" width="407.444" x="38.7" y="383.946"/><path d="M446.144,447.46c0,35.106-91.199,63.54-203.729,63.54C129.906,511,38.7,482.566,38.7,447.46     c0-35.08,91.207-63.514,203.715-63.514C354.944,383.946,446.144,412.38,446.144,447.46" fill="#231F20"/></g></g><path d="M90.695,380.912c0,0-16.01,18.847-4.715,47.11c11.308,28.276,73.509,15.09,75.387,0   c0,0,49.954,8.484,36.761-33.925c0,0-5.661-9.416-12.247-13.186H90.695z" fill="#989897"/><path d="M220.745,423.32c0,0-26.385,26.372,0,53.703s92.356,11.309,86.708-11.308c0,0,70.672,13.199,58.418-32.979   c-12.24-46.178-26.504-34.87-26.504-34.87L220.745,423.32z" fill="#989897"/><path d="M97.289,309.281c0,0,7.552,36.748-6.586,71.617c0,0,12.247,32.992,58.425,11.321   c0,0,34.863,9.417,36.748-11.321v-26.451C185.875,354.447,132.158,305.512,97.289,309.281" fill="#F3CBA2"/><path d="M218.86,362.052c0,0,6.6,28.277,1.885,61.269c0,0,44.3,37.681,75.4,0c0,0,46.27,8.983,48.096-26.596   c0,0-17.954-22.419-24.547-53.52L218.86,362.052z" fill="#F3CBA2"/><path d="M90.695,292.325c0,0-25.453,35.803-44.286,0c0,0-40.524,1.879-20.738-28.276   c0,0-30.687-14.132-5.444-30.155c0,0-4.918-35.815,19.583-14.131c0,0-4.715-27.331,17.907-28.277L90.695,292.325z" fill="#A53229"/><path d="M281.553,359.229c0,0-19.346,49.947-52.324,5.66c0,0-46.178,39.204-53.723-10.546   c0,0-55.601,18.071-55.601-35.632c0,0-54.649,8.484-43.341-45.245c0,0-50.893-14.119-20.738-55.595c0,0-33.917-29.209,1.891-45.232   c0,0-32.046-44.287,14.132-52.771c0,0-32.979-61.255,41.463-55.595c0,0,9.528-49.001,48.108-25.439   c0,0,11.262-42.415,52.731-12.267c0,0,38.686-55.595,67.401-2.824c0,0,59.824-22.609,49.448,34.87c0,0,68.794-14.131,46.178,55.595   l-46.178,213.92C331.001,328.128,324.461,379.021,281.553,359.229" fill="#CB3F32"/><rect fill="#FFFFFF" height="56.33" width="12.07" x="239.624" y="139.844"/><rect fill="#FFFFFF" height="12.07" width="56.324" x="217.5" y="161.975"/><path d="M323.463,157.562c0,0-33.924-60.31-94.24-39.578c0,0-15.071,65.031,64.099,81.993   c0,0-66.923,144.188,41.449,160.197c0,0,38.64,60.31,84.817,20.738c0,0,45.231,37.68,71.617-37.707s-1.878-87.627-29.209-133.805   c0,0,49.001-14.329,35.815-95.744c0,0-51.839-3.205-75.4,25.059L323.463,157.562z" fill="#F3CBA2"/><path d="M450.688,327.195   c0,0-26.938,39.52-68.938,0" fill="none" stroke="#C8A988" stroke-linecap="round" stroke-miterlimit="10" stroke-width="4.7474"/><path d="M353.617,327.195   c0,0-26.385-1.892-26.385-29.222" fill="none" stroke="#C8A988" stroke-linecap="round" stroke-miterlimit="10" stroke-width="4.7474"/><path d="M422.411,344.755   c0,0,8.104,28.526-2.823,36.144" fill="none" stroke="#C8A988" stroke-linecap="round" stroke-miterlimit="10" stroke-width="4.7474"/><path d="M333.418,316.938   c0,0-12.03,27.475,1.353,43.235" fill="none" stroke="#C8A988" stroke-linecap="round" stroke-miterlimit="10" stroke-width="4.7474"/><path d="M441.258,232.016c0,9.075,4.216,16.443,9.431,16.443c5.2,0,9.416-7.368,9.416-16.443   c0-9.088-4.216-16.443-9.416-16.443C445.474,215.573,441.258,222.928,441.258,232.016" fill="#434445"/><path d="M344.188,232.016c0,9.075,4.216,16.443,9.43,16.443c5.201,0,9.431-7.368,9.431-16.443   c0-9.088-4.229-16.443-9.431-16.443C348.403,215.573,344.188,222.928,344.188,232.016" fill="#434445"/><path d="M310.276,192.109c0,0,10.835-64.703-67.854-59.049C242.422,133.061,241.482,182.831,310.276,192.109" fill="#F6B5CE"/><path d="M479.897,136.364c0,0-47.452-14.604-54.597,47.59C425.301,183.954,475.655,202.321,479.897,136.364" fill="#F6B5CE"/><path d="M416.212,113.538c0,0-15.918-39.375-48.909-6.869c0,0-46.664-31.087-45.718,15.557   c0,0-51.011,14.789-6.134,42.415c0,0-15.918,48.056,28.789,31.087c0,0,14.565,37.417,45.192,3.638c0,0,36.42,30.286,35.868-19.182   c0,0,44.72-2.909,11.965-30.424C437.266,149.76,467.026,106.269,416.212,113.538" fill="#A53229"/><path d="M165.012,298.216c-41.332-7.131-37.759-41.692-37.759-41.692c1.366-25.42,41.417-24.323,41.417-24.323   c-9.692-8.229-3.474-21.211-3.474-21.211c-38.042-1.281-37.943-31.639-37.943-31.639c-4.656-47.734,35.198-46.454,35.198-46.454   l55.049-0.913c-4.209,10.238-23.227,9.876-23.227,9.876c9.692,5.667,25.965,33.097-2.009,56.875   c-27.981,23.772,21.21,29.439,22.123,63.094C214.604,269.723,206.344,305.354,165.012,298.216z M155.517,141.335   c-11.446,3.671-16.476,19.897-11.229,36.249c5.247,16.351,18.781,26.628,30.227,22.958c11.439-3.671,16.47-19.904,11.223-36.255   C180.49,147.941,166.956,137.658,155.517,141.335z M138.095,256.648c-2.377,11.78,9.338,24.087,26.169,27.488   c16.831,3.396,32.4-3.395,34.784-15.176c2.377-11.781-9.338-24.087-26.169-27.489C156.048,238.077,140.472,244.867,138.095,256.648   z" fill="#FFFFFF"/></g></svg>