<?xml version="1.0" ?><!DOCTYPE svg  PUBLIC '-//W3C//DTD SVG 1.1//EN'  'http://www.w3.org/Graphics/SVG/1.1/DTD/svg11.dtd'><svg height="512px" style="shape-rendering:geometricPrecision; text-rendering:geometricPrecision; image-rendering:optimizeQuality; fill-rule:evenodd; clip-rule:evenodd" version="1.1" viewBox="0 0 512 512" width="512px" xml:space="preserve" xmlns="http://www.w3.org/2000/svg" xmlns:xlink="http://www.w3.org/1999/xlink"><defs><style type="text/css">
   <![CDATA[
    .fil1 {fill:#FEFEFE}
    .fil0 {fill:#DC5C4B}
    .fil2 {fill:#FEFEFE;fill-rule:nonzero}
   ]]>
  </style></defs><g id="Layer_x0020_1"><g id="_307571145152"><path class="fil0" d="M31 212c13,-2 19,-5 19,-5 137,-117 211,-180 211,-180 104,75 156,113 156,113 8,-2 12,-3 12,-3 -113,-82 -169,-123 -169,-123 -149,128 -229,198 -229,198z"/><path class="fil0" d="M262 0c12,0 22,10 22,22 0,12 -10,22 -22,22 -12,0 -22,-10 -22,-22 0,-12 10,-22 22,-22zm0 11c6,0 11,5 11,11 0,6 -5,11 -11,11 -6,0 -11,-5 -11,-11 0,-6 5,-11 11,-11z"/><circle class="fil1" cx="262" cy="22" r="11"/><rect class="fil0" height="18.125" rx="1" ry="1" transform="matrix(15.6685 -3.17591 2.95516 16.839 15.738 210.761)" width="27.2503"/><circle class="fil1" cx="420" cy="154" r="11"/><circle class="fil1" cx="48" cy="231" r="11"/><circle class="fil1" cx="98" cy="480" r="11"/><circle class="fil1" cx="468" cy="404" r="11"/><g><path class="fil1" d="M270 245c0,0 -40,6 -54,8 -24,4 -44,25 -41,47 3,21 23,36 47,33 2,-1 4,-1 5,-1 -1,3 -2,7 -1,10 1,6 5,11 10,14 -3,0 -6,1 -10,2 -30,4 -50,27 -47,47 3,19 30,27 60,23 35,-5 50,-28 47,-47 -2,-16 -8,-25 -24,-32 -5,-3 -16,-10 -17,-15 0,-6 1,-9 8,-17 8,-8 13,-19 11,-31 -2,-13 -10,-26 -22,-28l17 -3 11 -10zm1 135c1,1 2,3 2,5 2,16 -6,30 -35,34 -21,3 -38,-7 -40,-23 -3,-16 14,-31 35,-34 5,-1 9,-1 14,0 12,6 21,9 24,18zm-42 -54c-14,2 -29,-12 -35,-29 -5,-18 2,-34 16,-35 14,-2 30,10 35,28 5,18 -2,34 -16,36z"/><polygon class="fil2" points="320,235 332,316 324,317 312,236 "/><polygon class="fil2" points="281,278 362,265 363,274 282,286 "/></g></g></g></svg>