<?xml version="1.0" ?><svg enable-background="new 0 0 32 32" version="1.1" viewBox="0 0 32 32" xml:space="preserve" xmlns="http://www.w3.org/2000/svg" xmlns:xlink="http://www.w3.org/1999/xlink"><g id="Flat_copy"><g><path d="M27.997,32.011h-24c-2.2,0-4-1.8-4-4v-24c0-2.2,1.8-4,4-4h24c2.2,0,4,1.8,4,4v24    C31.997,30.211,30.197,32.011,27.997,32.011z"/><path d="M27.997,29.844h-24c-2.2,0-4-1.8-4-4V4.011c0-2.2,1.8-4,4-4h24c2.2,0,4,1.8,4,4v21.833    C31.997,28.044,30.197,29.844,27.997,29.844z" fill="#E50914"/><g><defs><path d="M27.997,29.844h-24c-2.2,0-4-1.8-4-4V4.011c0-2.2,1.8-4,4-4h24c2.2,0,4,1.8,4,4v21.833      C31.997,28.044,30.197,29.844,27.997,29.844z" id="SVGID_63_"/></defs><clipPath id="SVGID_2_"><use overflow="visible" xlink:href="#SVGID_63_"/></clipPath><g clip-path="url(#SVGID_2_)"><polygon fill="#FFFFFF" opacity="0.25" points="-0.003,22.185 31.997,10.933 31.997,0.011 -0.003,0.011     "/></g></g></g><g><path d="M24.296,22.85v-6.137c0-3.288-1.755-4.818-4.096-4.818c-1.889,0-2.735,1.039-3.206,1.768v-1.517h-3.558    c0.047,1.005,0,10.704,0,10.704h3.558v-5.978c0-0.319,0.023-0.639,0.117-0.867c0.257-0.639,0.842-1.301,1.825-1.301    c1.288,0,1.803,0.981,1.803,2.42v5.727L24.296,22.85L24.296,22.85z M9.688,10.685c1.24,0,2.013-0.823,2.013-1.85    c-0.023-1.05-0.773-1.849-1.99-1.849S7.699,7.784,7.699,8.834c0,1.028,0.772,1.85,1.967,1.85H9.688z M11.467,22.85V12.146H7.909    V22.85H11.467z" fill="#FFFFFF"/></g></g></svg>