<?xml version="1.0" ?><svg enable-background="new 0 0 32 32" version="1.1" viewBox="0 0 32 32" xml:space="preserve" xmlns="http://www.w3.org/2000/svg" xmlns:xlink="http://www.w3.org/1999/xlink"><g id="Flat_copy"><g><path d="M28,32H4c-2.2,0-4-1.8-4-4V4c0-2.2,1.8-4,4-4h24c2.2,0,4,1.8,4,4v24C32,30.2,30.2,32,28,32z" fill="#FF0000"/><path d="M28,29.833H4c-2.2,0-4-1.8-4-4V4c0-2.2,1.8-4,4-4h24c2.2,0,4,1.8,4,4v21.833C32,28.033,30.2,29.833,28,29.833z"/><g><defs><path d="M28,29.833H4c-2.2,0-4-1.8-4-4V4c0-2.2,1.8-4,4-4h24c2.2,0,4,1.8,4,4v21.833      C32,28.033,30.2,29.833,28,29.833z" id="SVGID_13_"/></defs><clipPath id="SVGID_2_"><use overflow="visible" xlink:href="#SVGID_13_"/></clipPath><g clip-path="url(#SVGID_2_)"><polygon fill="#FFFFFF" opacity="0.25" points="0,22.175 32,10.923 32,0 0,0     "/></g></g></g><g><path d="M24.299,22.839v-6.137c0-3.288-1.755-4.818-4.096-4.818c-1.889,0-2.735,1.039-3.206,1.768v-1.517h-3.558    c0.047,1.005,0,10.704,0,10.704h3.558v-5.978c0-0.319,0.023-0.639,0.117-0.867c0.257-0.639,0.842-1.301,1.825-1.301    c1.288,0,1.803,0.981,1.803,2.42v5.727L24.299,22.839L24.299,22.839z M9.69,10.674c1.24,0,2.013-0.823,2.013-1.85    c-0.023-1.05-0.773-1.849-1.99-1.849S7.701,7.774,7.701,8.824c0,1.028,0.772,1.85,1.967,1.85H9.69z M11.469,22.839V12.135H7.912    v10.704H11.469z" fill="#FFFFFF"/></g></g></svg>