<?xml version="1.0" ?><!DOCTYPE svg  PUBLIC '-//W3C//DTD SVG 1.1//EN'  'http://www.w3.org/Graphics/SVG/1.1/DTD/svg11.dtd'><svg enable-background="new 0 0 512 512" height="512px" id="Layer_1" version="1.1" viewBox="0 0 512 512" width="512px" xml:space="preserve" xmlns="http://www.w3.org/2000/svg" xmlns:xlink="http://www.w3.org/1999/xlink"><g><g opacity="0.12"><g><rect fill="none" height="127.054" width="407.444" x="39.723" y="383.946"/><path d="M447.167,447.46c0,35.106-91.2,63.54-203.723,63.54c-112.512,0-203.722-28.434-203.722-63.54     c0-35.08,91.209-63.514,203.722-63.514C355.967,383.946,447.167,412.38,447.167,447.46" fill="#231F20"/></g></g><path d="M91.725,380.912c0,0-16.017,18.847-4.715,47.11c11.305,28.276,73.506,15.09,75.387,0   c0,0,49.951,8.484,36.758-33.924c0,0-5.657-9.417-12.247-13.187H91.725z" fill="#989897"/><path d="M221.768,423.32c0,0-26.379,26.372,0,53.703c26.385,27.331,92.355,11.309,86.708-11.308   c0,0,70.672,13.199,58.425-32.979s-26.51-34.87-26.51-34.87L221.768,423.32z" fill="#989897"/><path d="M98.318,309.281c0,0,7.545,36.748-6.59,71.617c0,0,12.244,32.992,58.421,11.321   c0,0,34.867,9.417,36.754-11.321v-26.45C186.904,354.448,133.185,305.512,98.318,309.281" fill="#F3CBA2"/><path d="M219.886,362.052c0,0,6.596,28.277,1.881,61.269c0,0,44.3,37.681,75.4,0c0,0,46.27,8.983,48.102-26.596   c0,0-17.954-22.419-24.554-53.52L219.886,362.052z" fill="#F3CBA2"/><path d="M91.725,292.325c0,0-25.453,35.803-44.293,0c0,0-40.521,1.879-20.731-28.276   c0,0-30.689-14.132-5.447-30.154c0,0-4.922-35.815,19.582-14.132c0,0-4.715-27.331,17.908-28.277L91.725,292.325z" fill="#962B31"/><path d="M282.583,359.229c0,0-19.347,49.947-52.331,5.66c0,0-46.175,39.204-53.72-10.546   c0,0-55.598,18.072-55.598-35.632c0,0-54.656,8.484-43.344-45.245c0,0-50.893-14.119-20.738-55.595c0,0-33.917-29.209,1.888-45.232   c0,0-32.042-44.287,14.135-52.771c0,0-32.982-61.255,41.463-55.595c0,0,9.528-49.001,48.105-25.439   c0,0,11.266-42.415,52.735-12.267c0,0,38.685-55.594,67.405-2.824c0,0,59.816-22.609,49.441,34.87c0,0,68.794-14.132,46.178,55.594   l-46.178,213.92C332.024,328.128,325.483,379.021,282.583,359.229" fill="#CB2028"/><path d="M273.018,171.871c0,0-13.094-53.303-72.526-51.595c0,0-31.563-2.246-54.062,15.386   c-56.858,44.562-16.876,97.097-10.517,101.018c6.36,3.914,8.806,0.243,8.806,0.243l3.178-9.298   c1.711-4.893-2.567-9.049-2.567-9.049c-19.444-36.688,10.638-76.313,46.959-77.784c36.321-1.464,53.565,17.98,53.933,46.598   s-12.841,59.797-37.421,59.797c-24.583,0-17.98-25.676-17.98-25.676s6.902-22.15,8.438-29.721   c5.91-29.078-15.603-28.947-22.748-24.58c-23.23,14.211-11.37,48.431-11.37,48.431l-15.777,62.732   c-3.671,17.612-4.955,23.693,0,28.986c14.434,15.412,25.439-23.477,25.439-23.477l8.071-28.618   c9.542,15.904,41.092,19.812,67.507-2.443c26.418-22.261,25.194-57.965,22.504-82.177" fill="#FFFFFF"/><path d="M324.485,157.562c0,0-33.917-60.31-94.237-39.578c0,0-15.074,65.031,64.095,81.993   c0,0-66.919,144.188,41.45,160.197c0,0,38.639,60.31,84.816,20.738c0,0,45.232,37.681,71.617-37.707   c26.393-75.387-1.878-87.627-29.209-133.805c0,0,49.002-14.329,35.815-95.744c0,0-51.838-3.205-75.394,25.059L324.485,157.562z" fill="#F3CBA2"/><path d="M451.711,327.195   c0,0-26.938,39.52-68.938,0" fill="none" stroke="#C8A988" stroke-linecap="round" stroke-miterlimit="10" stroke-width="4.7474"/><path d="M354.646,327.195   c0,0-26.385-1.892-26.385-29.222" fill="none" stroke="#C8A988" stroke-linecap="round" stroke-miterlimit="10" stroke-width="4.7474"/><path d="M423.44,344.755   c0,0,8.104,28.526-2.83,36.144" fill="none" stroke="#C8A988" stroke-linecap="round" stroke-miterlimit="10" stroke-width="4.7474"/><path d="M334.447,316.938   c0,0-12.037,27.475,1.353,43.235" fill="none" stroke="#C8A988" stroke-linecap="round" stroke-miterlimit="10" stroke-width="4.7474"/><path d="M442.287,232.016c0,9.075,4.21,16.444,9.424,16.444c5.201,0,9.423-7.369,9.423-16.444   c0-9.088-4.222-16.443-9.423-16.443C446.497,215.573,442.287,222.928,442.287,232.016" fill="#434445"/><path d="M345.217,232.016c0,9.075,4.21,16.444,9.424,16.444c5.2,0,9.43-7.369,9.43-16.444   c0-9.088-4.229-16.443-9.43-16.443C349.427,215.573,345.217,222.928,345.217,232.016" fill="#434445"/><path d="M311.299,192.109c0,0,10.836-64.703-67.851-59.048C243.448,133.061,242.505,182.831,311.299,192.109" fill="#F6B5CE"/><path d="M480.92,136.364c0,0-47.452-14.605-54.597,47.589C426.323,183.954,476.678,202.321,480.92,136.364" fill="#F6B5CE"/><path d="M417.235,113.538c0,0-15.918-39.375-48.903-6.869c0,0-46.67-31.087-45.725,15.557   c0,0-51.011,14.789-6.127,42.415c0,0-15.924,48.056,28.782,31.087c0,0,14.565,37.417,45.193,3.638c0,0,36.419,30.286,35.867-19.182   c0,0,44.721-2.909,11.965-30.424C438.288,149.76,468.056,106.269,417.235,113.538" fill="#962B31"/></g></svg>