<?xml version="1.0" ?><svg enable-background="new 0 0 32 32" version="1.1" viewBox="0 0 32 32" xml:space="preserve" xmlns="http://www.w3.org/2000/svg" xmlns:xlink="http://www.w3.org/1999/xlink"><g id="Flat_copy"><g><path d="M28.008,32.016h-24c-2.2,0-4-1.8-4-4v-24c0-2.2,1.8-4,4-4h24c2.2,0,4,1.8,4,4v24    C32.008,30.216,30.208,32.016,28.008,32.016z"/><path d="M28.008,29.849h-24c-2.2,0-4-1.8-4-4V4.016c0-2.2,1.8-4,4-4h24c2.2,0,4,1.8,4,4v21.833    C32.008,28.049,30.208,29.849,28.008,29.849z" fill="#E50914"/><g><defs><path d="M28.008,29.849h-24c-2.2,0-4-1.8-4-4V4.016c0-2.2,1.8-4,4-4h24c2.2,0,4,1.8,4,4v21.833      C32.008,28.049,30.208,29.849,28.008,29.849z" id="SVGID_89_"/></defs><clipPath id="SVGID_2_"><use overflow="visible" xlink:href="#SVGID_89_"/></clipPath><g clip-path="url(#SVGID_2_)"><polygon fill="#FFFFFF" opacity="0.25" points="0.008,22.19 32.008,10.938 32.008,0.016 0.008,0.016     "/></g></g></g><g><path d="M24.01,11.402c0,4.658-2.59,8.139-6.407,8.139c-1.283,0-2.488-0.693-2.901-1.481    c0,0-0.69,2.736-0.835,3.264c-0.514,1.866-2.027,3.733-2.144,3.886c-0.082,0.106-0.263,0.073-0.282-0.068    c-0.033-0.238-0.418-2.592,0.036-4.513c0.228-0.964,1.527-6.471,1.527-6.471s-0.379-0.758-0.379-1.879    c0-1.76,1.02-3.074,2.29-3.074c1.08,0,1.601,0.81,1.601,1.782c0,1.086-0.691,2.71-1.048,4.214    c-0.298,1.26,0.632,2.288,1.874,2.288c2.25,0,3.765-2.89,3.765-6.314c0-2.602-1.752-4.551-4.941-4.551    c-3.601,0-5.846,2.686-5.846,5.687c0,1.035,0.306,1.765,0.784,2.329c0.219,0.26,0.25,0.364,0.17,0.662    c-0.058,0.219-0.187,0.744-0.243,0.953c-0.079,0.301-0.323,0.408-0.594,0.297c-1.659-0.677-2.432-2.495-2.432-4.537    c0-3.373,2.845-7.418,8.487-7.418C21.027,4.599,24.01,7.879,24.01,11.402z" fill="#FFFFFF"/></g></g></svg>