<?xml version="1.0" ?><!DOCTYPE svg  PUBLIC '-//W3C//DTD SVG 1.1//EN'  'http://www.w3.org/Graphics/SVG/1.1/DTD/svg11.dtd'><svg height="512px" style="shape-rendering:geometricPrecision; text-rendering:geometricPrecision; image-rendering:optimizeQuality; fill-rule:evenodd; clip-rule:evenodd" version="1.1" viewBox="0 0 512 512" width="512px" xml:space="preserve" xmlns="http://www.w3.org/2000/svg" xmlns:xlink="http://www.w3.org/1999/xlink"><defs><style type="text/css">
   <![CDATA[
    .fil1 {fill:#FEFEFE}
    .fil0 {fill:#D43439}
   ]]>
  </style></defs><g id="Layer_x0020_1"><g id="_307571662272"><path class="fil0" d="M31 212c13,-2 19,-5 19,-5 137,-117 211,-180 211,-180 104,75 156,113 156,113 8,-2 12,-3 12,-3 -113,-82 -169,-123 -169,-123 -149,128 -229,198 -229,198z"/><path class="fil0" d="M262 0c12,0 22,10 22,22 0,12 -10,22 -22,22 -12,0 -22,-10 -22,-22 0,-12 10,-22 22,-22zm0 11c6,0 11,5 11,11 0,6 -5,11 -11,11 -6,0 -11,-5 -11,-11 0,-6 5,-11 11,-11z"/><circle class="fil1" cx="262" cy="22" r="11"/><rect class="fil0" height="18.125" rx="1" ry="1" transform="matrix(15.6685 -3.17591 2.95516 16.839 15.738 210.761)" width="27.2503"/><circle class="fil1" cx="420" cy="154" r="11"/><circle class="fil1" cx="48" cy="231" r="11"/><circle class="fil1" cx="98" cy="480" r="11"/><circle class="fil1" cx="468" cy="404" r="11"/><g><circle class="fil1" r="24" transform="matrix(4.27238 -0.806834 0.806834 4.27238 261.477 319.419)"/><path class="fil0" d="M248 257c-44,8 -61,44 -56,71 3,16 12,29 26,32 2,0 4,-1 4,-3 0,-2 1,-6 1,-8 0,-3 0,-3 -3,-5 -4,-4 -8,-9 -9,-17 -5,-24 9,-48 38,-54 25,-5 42,8 45,29 6,27 -2,52 -20,55 -10,2 -19,-5 -18,-15 0,-13 3,-26 2,-35 -2,-8 -7,-13 -15,-12 -11,2 -17,14 -14,28 2,9 6,14 6,14 0,0 -2,45 -3,53 0,16 6,34 7,36 0,1 2,1 2,0 1,-1 10,-18 11,-34 1,-4 2,-27 2,-27 4,6 15,10 25,8 30,-6 46,-37 39,-74 -6,-28 -34,-49 -70,-42z"/></g></g></g></svg>