<?xml version="1.0" ?><!DOCTYPE svg  PUBLIC '-//W3C//DTD SVG 1.1//EN'  'http://www.w3.org/Graphics/SVG/1.1/DTD/svg11.dtd'><svg enable-background="new 0 0 512 512" height="512px" id="Layer_1" version="1.1" viewBox="0 0 512 512" width="512px" xml:space="preserve" xmlns="http://www.w3.org/2000/svg" xmlns:xlink="http://www.w3.org/1999/xlink"><g><g opacity="0.12"><g><rect fill="none" height="127.055" width="407.443" x="38.532" y="383.945"/><path d="M445.976,447.459c0,35.1-91.199,63.541-203.722,63.541c-112.512,0-203.722-28.441-203.722-63.541     c0-35.08,91.21-63.521,203.722-63.521C354.776,383.938,445.976,412.379,445.976,447.459" fill="#231F20"/></g></g><path d="M90.535,380.904c0,0-16.017,18.854-4.715,47.117c11.305,28.27,73.505,15.084,75.387,0   c0,0,49.95,8.484,36.757-33.932c0,0-5.657-9.41-12.247-13.186H90.535z" fill="#989897"/><path d="M220.577,423.312c0,0-26.379,26.379,0,53.711c26.385,27.33,92.355,11.307,86.708-11.309   c0,0,70.672,13.199,58.425-32.979s-26.511-34.877-26.511-34.877L220.577,423.312z" fill="#989897"/><path d="M97.128,309.279c0,0,7.545,36.748-6.59,71.619c0,0,12.244,32.99,58.422,11.314   c0,0,34.866,9.422,36.754-11.314v-26.459C185.714,354.439,131.994,305.512,97.128,309.279" fill="#F3CBA2"/><path d="M218.696,362.051c0,0,6.596,28.277,1.881,61.262c0,0,44.3,37.688,75.399,0c0,0,46.271,8.99,48.103-26.588   c0,0-17.954-22.42-24.554-53.52L218.696,362.051z" fill="#F3CBA2"/><path d="M90.535,292.324c0,0-25.453,35.803-44.293,0c0,0-40.521,1.879-20.731-28.275c0,0-30.69-14.139-5.447-30.156   c0,0-4.922-35.815,19.582-14.138c0,0-4.715-27.324,17.908-28.276L90.535,292.324z" fill="#6DC1D6"/><path d="M281.393,359.227c0,0-19.346,49.947-52.331,5.662c0,0-46.174,39.203-53.72-10.547   c0,0-55.598,18.072-55.598-35.639c0,0-54.655,8.484-43.344-45.238c0,0-50.893-14.125-20.738-55.594c0,0-33.917-29.209,1.888-45.239   c0,0-32.042-44.287,14.135-52.771c0,0-32.982-61.252,41.462-55.594c0,0,9.529-49.001,48.105-25.44c0,0,11.265-42.412,52.734-12.26   c0,0,38.685-55.594,67.405-2.824c0,0,59.816-22.613,49.441,34.866c0,0,68.793-14.135,46.178,55.598l-46.178,213.92   C330.834,328.127,324.293,379.014,281.393,359.227" fill="#00ACEE"/><path d="M200.634,155.216c-36.436-0.709-68.791-18.091-89.751-44.831l-0.007-0.007   c-3.487,5.897-5.49,12.779-5.49,20.127c0,15.044,8.383,28.125,20.734,34.836l0.017-0.098c-7.102-1.005-14-2.633-20.633-4.846   l-0.033-0.007c-0.056,0.88-0.085,1.76-0.085,2.653c0,19.24,13.725,35.276,31.918,38.862l0,0c-4.364,0.492-8.8,0.749-13.294,0.749   c-1.744,0-3.48-0.04-5.208-0.119l-0.007-0.013c4.797,16.496,20.016,28.539,38.048,28.539c1.891,0,3.75-0.131,5.568-0.381v-0.013   c-18.068,12.319-39.762,19.7-63.153,20.212l-0.013-0.013c18.006,11.321,39.315,17.875,62.155,17.875   c64.575,0,116.918-52.338,116.918-116.91c0-2.266-0.064-4.524-0.196-6.764l0.003,0.007c8.705-6.869,16.41-14.939,22.862-23.969   c-7.952,3.809-16.403,6.744-25.223,8.688l0.374-0.295c9.66-7.762,18.059-17.028,24.846-27.449l0.003-0.006   c-9.893,6.363-20.804,11.282-32.442,14.447l-0.008-0.013c-7.262-8.924-18.337-14.624-30.742-14.624   c-21.874,0-39.614,17.737-39.614,39.611c0,4.839,0.867,9.469,2.456,13.75H200.634z" fill="#FFFFFF"/><path d="M323.295,157.561c0,0-33.918-60.316-94.237-39.578c0,0-15.074,65.024,64.095,81.993   c0,0-66.919,144.18,41.45,160.198c0,0,38.639,60.309,84.816,20.73c0,0,45.231,37.688,71.617-37.699   c26.392-75.387-1.878-87.635-29.209-133.812c0,0,49.001-14.329,35.815-95.744c0,0-51.839-3.205-75.394,25.059L323.295,157.561z" fill="#F3CBA2"/><path d="M450.52,327.188   c0,0-26.937,39.525-68.938,0" fill="none" stroke="#C8A988" stroke-linecap="round" stroke-miterlimit="10" stroke-width="4.7474"/><path d="M353.456,327.188   c0,0-26.385-1.891-26.385-29.215" fill="none" stroke="#C8A988" stroke-linecap="round" stroke-miterlimit="10" stroke-width="4.7474"/><path d="M422.25,344.754   c0,0,8.104,28.525-2.83,36.145" fill="none" stroke="#C8A988" stroke-linecap="round" stroke-miterlimit="10" stroke-width="4.7474"/><path d="M333.257,316.938   c0,0-12.037,27.475,1.353,43.236" fill="none" stroke="#C8A988" stroke-linecap="round" stroke-miterlimit="10" stroke-width="4.7474"/><path d="M441.097,232.008c0,9.082,4.209,16.443,9.423,16.443c5.201,0,9.424-7.361,9.424-16.443   c0-9.082-4.223-16.443-9.424-16.443C445.306,215.565,441.097,222.927,441.097,232.008" fill="#434445"/><path d="M344.026,232.008c0,9.082,4.209,16.443,9.423,16.443c5.201,0,9.431-7.361,9.431-16.443   c0-9.082-4.229-16.443-9.431-16.443C348.235,215.565,344.026,222.927,344.026,232.008" fill="#434445"/><path d="M310.109,192.109c0,0,10.835-64.709-67.852-59.049C242.257,133.06,241.315,182.823,310.109,192.109" fill="#F6B5CE"/><path d="M479.729,136.357c0,0-47.452-14.604-54.597,47.596C425.133,183.953,475.487,202.32,479.729,136.357" fill="#F6B5CE"/><path d="M416.045,113.531c0,0-15.918-39.368-48.903-6.862c0,0-46.671-31.094-45.725,15.557   c0,0-51.011,14.788-6.127,42.408c0,0-15.925,48.056,28.782,31.094c0,0,14.565,37.411,45.192,3.631c0,0,36.42,30.292,35.868-19.175   c0,0,44.72-2.909,11.965-30.424C437.098,149.759,466.865,106.268,416.045,113.531" fill="#6DC1D6"/></g></svg>