<?xml version="1.0" ?><!DOCTYPE svg  PUBLIC '-//W3C//DTD SVG 1.1//EN'  'http://www.w3.org/Graphics/SVG/1.1/DTD/svg11.dtd'><svg height="512px" style="shape-rendering:geometricPrecision; text-rendering:geometricPrecision; image-rendering:optimizeQuality; fill-rule:evenodd; clip-rule:evenodd" version="1.1" viewBox="0 0 512 512" width="512px" xml:space="preserve" xmlns="http://www.w3.org/2000/svg" xmlns:xlink="http://www.w3.org/1999/xlink"><defs><style type="text/css">
   <![CDATA[
    .fil1 {fill:#FEFEFE}
    .fil0 {fill:#4FA6DC}
   ]]>
  </style></defs><g id="Layer_x0020_1"><g id="_307609953120"><g><path class="fil0" d="M31 212c13,-2 19,-5 19,-5 137,-117 211,-180 211,-180 104,75 156,113 156,113 8,-2 12,-3 12,-3 -113,-82 -169,-123 -169,-123 -149,128 -229,198 -229,198z"/><path class="fil0" d="M262 0c12,0 22,10 22,22 0,12 -10,22 -22,22 -12,0 -22,-10 -22,-22 0,-12 10,-22 22,-22zm0 11c6,0 11,5 11,11 0,6 -5,11 -11,11 -6,0 -11,-5 -11,-11 0,-6 5,-11 11,-11z"/><circle class="fil1" cx="262" cy="22" r="11"/><rect class="fil0" height="18.125" rx="1" ry="1" transform="matrix(15.6685 -3.17591 2.95516 16.839 15.738 210.761)" width="27.2503"/><circle class="fil1" cx="420" cy="154" r="11"/><circle class="fil1" cx="48" cy="231" r="11"/><circle class="fil1" cx="98" cy="480" r="11"/><circle class="fil1" cx="468" cy="404" r="11"/></g><path class="fil1" d="M364 296c0,2 -1,4 -1,7 -7,70 -68,146 -164,136 -30,-3 -57,-15 -78,-32 4,1 8,1 12,2 25,2 48,-4 68,-16 -23,-3 -41,-21 -46,-42 4,1 7,1 10,2 5,0 10,0 14,-1 -23,-7 -39,-31 -36,-56 0,-1 0,-1 0,-1 6,5 14,8 23,9 -13,-11 -21,-28 -19,-47 1,-9 4,-18 10,-26 22,35 59,60 102,67 -1,-4 -1,-8 0,-12 3,-30 29,-51 58,-48 15,1 28,9 36,21 12,-2 24,-5 35,-10 -5,12 -15,22 -26,27 10,0 21,-2 31,-5 -8,10 -18,18 -29,25z"/></g></g></svg>